<svg width="245" height="64" viewBox="0 0 245 64" fill="none" xmlns="http://www.w3.org/2000/svg">
<g clip-path="url(#clip0_108_1046)">
<path d="M32.0013 1.07871C14.9231 1.07871 1.0791 14.9213 1.0791 31.9982C1.0791 49.0752 14.9231 62.9213 32.0013 62.9213C49.0795 62.9213 62.92 49.077 62.92 31.9982C62.92 14.9195 49.0778 1.07871 32.0013 1.07871Z" stroke="#2D255C" stroke-width="1.71804"/>
<path d="M31.9991 0C14.3263 0 0 14.3267 0 32C0 49.6733 14.3263 64.0018 31.9991 64.0018C49.672 64.0018 64 49.6751 64 32C64 14.3249 49.672 0 31.9991 0ZM32.1079 62.8143C15.0296 62.8143 1.18567 48.9682 1.18567 31.893C1.18567 14.8178 15.0296 0.969963 32.1079 0.969963C49.1861 0.969963 63.0266 14.8143 63.0266 31.893C63.0266 48.9717 49.1826 62.8143 32.1079 62.8143Z" fill="#2D255C"/>
<path d="M32.4363 4.29379L32.4328 4.26222C32.4135 4.26222 32.3731 4.27275 32.3433 4.27976C32.3135 4.2745 32.2732 4.26222 32.2521 4.26222V4.29379C29.7633 4.93751 9.69629 15.9193 9.69629 15.9193C9.69629 15.9193 12.2851 15.9193 12.9341 16.4595C13.5813 16.9998 13.69 17.8627 13.69 17.8627H50.9949C50.9949 17.8627 51.1036 16.9998 51.7491 16.4595C52.398 15.9193 54.9886 15.9193 54.9886 15.9193C54.9886 15.9193 34.9497 4.95154 32.4363 4.29555V4.29379Z" fill="#2D255C"/>
<path d="M48.4037 38.474C49.9156 38.474 51.859 38.9073 51.859 41.7119C51.859 44.5166 50.2401 45.3813 48.295 45.3813H12.8984C12.8984 45.3813 14.7331 44.4096 14.7331 42.1434C14.7331 39.8772 13.0072 38.474 13.0072 38.474H48.4055H48.4037Z" fill="#2D255C"/>
<path d="M16.3502 46.8932C14.8401 46.8932 12.8984 47.3247 12.8984 50.1311C12.8984 52.9375 14.5156 53.8005 16.459 53.8005H51.859C51.859 53.8005 50.0226 52.8288 50.0226 50.5626C50.0226 48.2964 51.7485 46.8932 51.7485 46.8932H16.3502Z" fill="#2D255C"/>
<path d="M39.96 28.9779H43.189L41.6017 24.4332L39.96 28.9779Z" fill="#2D255C"/>
<path d="M48.2951 19.1572C46.6779 19.1572 36.64 19.0502 35.8858 19.0502C35.1316 19.0502 33.8337 19.0502 33.2952 19.6974C32.9374 20.1272 32.4586 20.4902 32.1622 20.699C31.8658 20.4902 31.3852 20.1254 31.0274 19.6974C30.4889 19.0502 29.1927 19.0502 28.4368 19.0502C27.6808 19.0502 17.6465 19.1572 16.0276 19.1572C14.4087 19.1572 13.1143 19.5887 13.1143 21.2076V33.7277C13.1143 34.6977 13.33 34.9134 13.8685 35.4554C14.4087 35.9939 14.9471 35.9939 16.0276 35.9939H28.1158C28.7613 35.9939 29.9505 35.6694 30.4889 36.2096C30.9344 36.6551 31.8079 37.6759 32.1061 38.025V38.153C32.1061 38.153 32.1271 38.1285 32.1622 38.0881C32.1955 38.1285 32.2166 38.153 32.2166 38.153V38.025C32.5147 37.6759 33.39 36.6569 33.8355 36.2096C34.3757 35.6694 35.5631 35.9939 36.2103 35.9939H48.2968C49.3772 35.9939 49.9175 35.9939 50.4559 35.4554C50.9961 34.9152 51.2119 34.6994 51.2119 33.7277V21.2076C51.2119 19.5887 49.9175 19.1572 48.2968 19.1572H48.2951ZM27.0424 33.1857L23.3837 28.0202L21.7192 29.604V33.1857H20.3704V22.9073H21.7192V27.9307L26.8214 22.9073H28.7613L24.408 27.0467L28.8542 33.1857H27.0406H27.0424ZM36.4857 33.1857H29.9031V22.9073H31.3063V31.9737H36.4857V33.1857ZM44.6574 33.1857L43.5839 30.1109H39.5481L38.4361 33.1857H37.0084L40.8723 22.9073H42.4439L46.1833 33.1857H44.6556H44.6574Z" fill="#2D255C"/>
</g>
<g clip-path="url(#clip1_108_1046)">
<path d="M121.581 12.6871C120.716 12.5037 120.683 12.3274 120.336 12.3951C119.989 12.4627 120.406 12.1849 120.513 11.9748L120.87 10.4967C120.939 10.1743 121.009 9.85199 121.077 9.52966C121.107 9.38897 121.114 9.14855 121.194 9.03102C121.357 8.7906 121.525 8.97403 121.364 8.6232C121.24 8.35251 120.863 8.10141 120.648 7.92154C120.648 7.92154 119.786 7.31605 117.567 7.40331C117.567 7.40331 115.35 7.24481 114.97 7.17002C114.59 7.097 111.229 6.89399 111.022 6.8922C111.022 6.8922 108.285 6.90467 107.034 7.31783C105.784 7.73099 104.469 7.51729 102.903 8.31511C102.903 8.31511 101.997 8.93307 102.061 9.70774C102.061 9.70774 103.584 9.8609 103.966 9.65254C104.35 9.44418 108.162 9.22869 109.099 8.99006C110.036 8.75142 112.008 9.29637 112.875 9.23225C113.742 9.16814 114.397 9.59733 115.091 9.4976C115.479 9.4424 115.814 9.72199 116.205 9.73446C116.473 9.74158 117.203 9.79501 117.411 9.58665C117.586 9.41212 117.22 11.8751 117.045 11.9801C116.872 12.0834 116.695 12.4342 113.718 12.1992C113.718 12.1992 111.81 12.2882 110.702 12.2099C109.593 12.1297 103.871 12.6479 102.689 13.1662C101.507 13.6844 101.045 15.1607 103.439 14.687C103.922 14.6407 104.406 14.6051 104.891 14.582C105.257 14.5642 105.623 14.5535 105.989 14.5606C106.493 14.5695 106.868 14.6461 107.369 14.5321C107.789 14.4359 108.176 14.468 108.579 14.4377C108.579 14.4377 111.413 14.224 111.444 14.6817L111.437 15.6683C111.437 15.6683 111.469 15.9853 110.742 15.8749C110.015 15.7627 107.034 15.914 105.716 16.0458C105.716 16.0458 103.702 16.4875 103.148 16.4839C102.593 16.4786 101.239 16.9612 101.094 17.8409C101.094 17.8409 101.749 18.3752 104.141 18.1116C104.141 18.1116 106.779 17.5702 110.311 17.8801C110.311 17.8801 113.117 18.1134 113.462 18.1882C113.462 18.1882 117.136 17.9709 117.374 18.5729C117.613 19.173 117.676 20.0207 117.39 20.8987C117.39 20.8987 117.229 23.7516 117.471 23.7534C117.471 23.7534 117.949 24.5672 118.122 24.569C118.122 24.569 118.714 24.0811 119.166 24.049C119.616 24.017 120.387 23.0731 120.389 22.8968C120.389 22.7205 120.562 18.564 120.562 18.564C120.562 18.564 120.504 17.1891 120.713 17.1197C120.921 17.0502 121.135 16.418 120.375 16.1295C119.614 15.841 118.716 15.4118 117.534 16.0013C117.534 16.0013 115.28 16.2649 115.038 16.0512C114.798 15.8375 115.352 15.9479 115.29 14.8206C115.29 14.8206 115.155 14.2561 117.581 14.452C120.007 14.6479 120.04 14.6835 120.212 14.7547C120.385 14.8259 120.7 14.3718 121.115 14.3398C121.532 14.3077 121.779 13.7111 121.779 13.7111L122.406 13.3638C122.406 13.3638 122.445 12.8706 121.58 12.6871H121.581Z" fill="#2D255C"/>
<path d="M126.646 10.055C127.646 10.803 127.872 12.8492 126.853 14.5321C126.853 14.5321 126.501 15.2338 127.22 16.3682C127.938 17.5008 129.199 15.9265 132.527 15.8482C132.527 15.8482 134.606 15.8303 135.196 15.8001C135.786 15.7698 136.2 16.0191 139.319 16.044C142.438 16.069 143.613 16.2898 144.589 15.6986C145.564 15.1073 145.643 13.9106 145.298 13.6595C144.953 13.4102 144.75 12.8456 141.144 13.0967C137.538 13.3496 135.529 13.1573 135.529 13.1573C135.529 13.1573 132.86 13.241 130.361 13.6791C130.361 13.6791 130.543 12.6586 130.41 11.9178C130.276 11.177 130.073 10.6463 130.073 10.6463C130.073 10.6463 129.905 10.0817 130.804 10.3346C131.702 10.5893 137.87 10.7798 138.981 10.5768C140.091 10.3738 141.375 10.1726 141.893 10.3542C142.412 10.5341 144.079 10.0194 144.079 10.0194C144.079 10.0194 145.608 9.43349 145.443 8.4095C145.279 7.3855 143.752 7.51373 143.752 7.51373C143.752 7.51373 141.462 7.70606 140.909 7.56181C140.356 7.41578 139.31 8.14771 138.168 7.9625C137.026 7.77729 135.359 8.32758 131.756 7.98031C131.756 7.98031 128.949 8.09785 128.119 7.77551C127.29 7.4514 125.646 9.30527 126.646 10.0532V10.055Z" fill="#2D255C"/>
<path d="M146.353 20.2237C145.869 20.0439 145.454 19.8284 145.351 19.8284C145.248 19.8284 140.465 19.9299 139.253 19.7429C138.549 19.6343 138.783 18.2808 138.505 17.8338C138.197 17.337 139.689 17.1731 136.783 16.3753C136.783 16.3753 135.293 16.3272 135.493 17.3868L135.302 19.6396C135.302 19.6396 132.391 19.6503 128.815 20.5033C128.815 20.5033 128.014 20.8488 127.289 20.6672C127.289 20.6672 126.839 20.6636 126.627 21.05C126.417 21.4365 125.683 22.2058 126.613 22.7419C127.545 23.2779 130.914 22.1773 132.231 22.0829C133.548 21.9886 136.044 22.0794 138.328 22.3429C140.614 22.6083 143.938 22.9182 145.365 22.0829C146.792 21.2495 146.834 20.4036 146.349 20.2237H146.353Z" fill="#2D255C"/>
<path d="M161.547 14.1973C161.444 14.1617 161.139 13.1715 161.139 13.1715C160.519 12.6016 160.798 12.5696 159.875 10.9757C159.451 10.242 159.335 9.65788 159.657 9.07198C159.754 8.89745 159.889 8.72293 160.067 8.54484C159.99 8.03017 159.458 7.7488 159.034 7.57605C158.852 7.50304 158.617 7.38194 158.418 7.43358C158.213 7.48523 158.095 7.73455 157.903 7.82181C157.764 7.88592 157.51 7.83606 157.403 7.89839C156.882 8.21182 156.375 8.78704 156.375 8.78704C155.988 9.52431 156.174 9.92145 156.174 9.92145C156.174 9.92145 154.487 12.7975 153.437 14.2329C152.386 15.6683 150.909 18.2292 152.431 18.6655C153.953 19.1 154.769 16.6763 154.841 16.3236C154.913 15.971 157.26 12.9258 157.367 12.5375C157.474 12.1511 157.789 11.8359 158.628 15.191C159.468 18.5462 160.022 18.5141 160.022 18.5141C162.306 18.8845 162.766 17.6913 162.766 17.6913L161.882 15.4991C161.607 15.1803 161.649 14.2293 161.545 14.1919L161.547 14.1973Z" fill="#2D255C"/>
<path d="M170.218 13.2802C170.544 11.5919 170.1 10.6017 170.104 10.0016C170.109 9.40322 170.006 9.43705 170.293 7.95894C170.293 7.95894 169.719 6.05164 168.188 6.95454C166.656 7.85921 167.731 7.8325 167.379 8.39347C167.027 8.95444 167.577 9.52254 167.433 10.1904C167.433 10.1904 166.356 10.6391 165.423 10.2438C164.491 9.84843 162.338 10.1832 163.02 11.7753C163.701 13.3656 165.088 13.2018 165.782 13.1021C166.475 13.0023 166.958 13.1466 167.204 13.0433C167.447 12.94 166.797 20.7224 166.93 21.3581C167.065 21.9939 167.92 23.3741 169.346 22.8932C170.769 22.4106 170.153 21.5612 170.199 20.2219C170.242 18.8827 169.894 14.9684 170.218 13.2802Z" fill="#2D255C"/>
<path d="M176.224 14.0406C176.224 14.0406 175.81 13.7913 175.18 14.63C174.549 15.4706 176.276 16.3308 177.041 15.914C177.807 15.4973 180.756 15.1697 181.241 15.1732C181.726 15.1768 184.254 15.5151 184.462 15.4101C184.67 15.3068 186.607 15.8143 186.713 15.5686C186.819 15.3228 187.063 15.2534 187.653 15.0468C188.007 14.9239 188.29 14.6336 188.42 14.2774C188.331 14.1848 188.042 13.7717 187.903 13.745C187.884 13.7414 187.178 13.5989 187.178 13.5989C186.66 13.533 186.93 12.8456 187.001 12.534C187.142 11.916 187.177 11.2767 187.362 10.6694C187.427 10.4539 187.49 10.3346 187.415 10.1138C187.245 9.61871 188.047 9.13253 188.047 9.13253C188.22 9.02924 187.537 7.89484 187.121 7.89127C186.706 7.88771 185.672 7.03468 185.29 7.10057C184.909 7.16824 182.521 6.80495 182.521 6.80495C179.509 6.49864 177.217 7.17537 177.217 7.17537C173.29 8.58759 175.989 9.10404 176.127 9.06842C176.266 9.03459 177.894 9.01144 177.894 9.01144C180.392 8.60896 181.395 9.00431 181.845 9.00787C182.213 9.01144 182.52 9.17349 182.867 9.27678C183.217 9.38007 183.613 9.33911 183.803 9.70241C184.045 10.1619 183.898 10.9437 183.916 11.4477C183.937 12.0264 183.972 12.6052 183.996 13.184C183.996 13.184 181.189 13.2321 181.399 13.0575C181.607 12.883 181.406 12.071 181.238 11.6115C181.068 11.152 181.549 11.6151 179.858 10.7905C178.166 9.96598 178.323 11.9053 178.323 11.9053C179.045 12.7922 178.693 13.4244 178.693 13.4244C176.712 14.1831 176.227 14.0388 176.227 14.0388L176.224 14.0406Z" fill="#2D255C"/>
<path d="M194.335 20.0724C193.161 19.3939 187.818 20.3021 187.058 20.0492C186.297 19.7963 180.094 19.7447 179.087 20.1258C179.087 20.1258 179.861 18.5462 178.591 16.9505C178.591 16.9505 176.691 16.1491 175.914 18.0119C175.914 18.0119 176.597 19.2247 175.712 21.684C175.611 21.9672 175.45 22.229 175.236 22.4391C175.126 22.5478 176.486 23.155 176.577 23.18C177.418 23.3972 178.25 23.2619 179.029 22.8754C181.325 21.7303 187.105 22.6243 187.105 22.6243C187.105 22.6243 192.613 22.8808 193.662 21.6912C194.711 20.5015 195.506 20.7544 194.333 20.0759L194.335 20.0724Z" fill="#2D255C"/>
<path d="M195.835 9.90186C194.974 9.33199 193.345 9.35336 193.207 9.35158C193.068 9.35158 193.222 7.37838 192.569 6.80851C191.916 6.23863 191.674 5.95548 190.562 6.36864C189.45 6.78358 189.998 7.59743 190.17 7.9162C190.34 8.23498 190.511 8.55375 190.299 9.04527C190.299 9.04527 189.907 14.8918 190.147 15.2462C190.387 15.6006 190.834 16.1224 191.734 16.1651C191.734 16.1651 192.326 15.7912 193.019 15.7965C193.019 15.7965 193.335 15.3762 192.958 14.8099C192.581 14.2436 193.245 13.403 193.014 12.062C193.014 12.062 192.842 11.8127 193.501 11.8181C194.159 11.8234 193.986 11.8929 194.783 11.9C195.58 11.9071 194.891 11.266 196.105 11.0648C196.105 11.0648 196.699 10.47 195.837 9.90008L195.835 9.90186Z" fill="#2D255C"/>
<path d="M205.865 11.282C205.83 11.3871 204.609 12.3488 204.609 12.3488C202.795 14.0246 204.551 15.3246 204.551 15.3246C210.184 17.4848 211.795 15.3139 211.795 15.3139C214 12.4075 210.341 10.5804 210.93 10.6908C211.518 10.8012 213.217 10.6748 213.217 10.6748C213.671 10.185 213.877 10.4326 214.783 9.80747C215.688 9.18061 213.615 8.60005 213.615 8.60005C212.891 7.99456 208.931 9.30171 209.107 9.02211C209.282 8.74252 209.455 8.77814 209.455 8.77814C210.427 8.5395 209.777 7.51194 209.777 7.51194C208.339 5.35176 206.388 6.67494 206.388 6.67494C205.38 7.23057 205.385 7.66332 205.385 7.66332C205.555 8.12278 205.893 7.97497 205.893 7.97497C206.651 8.54484 206.336 8.96513 206.336 8.96513L205.331 8.92239C203.147 9.1165 202.49 8.86362 201.97 8.89567C201.45 8.92595 199.467 9.79145 199.914 10.3239C200.36 10.8564 204.656 10.8902 205.42 10.8974C206.182 10.9045 205.902 11.1841 205.867 11.2891L205.865 11.282ZM206.818 13.4048C206.923 13.2997 207.62 12.6355 207.658 12.3185C207.697 12.0015 207.861 12.8492 208.077 11.9694C208.077 11.9694 208.529 11.6916 209.182 12.5411C209.833 13.3923 208.161 14.5054 207.994 13.7645C207.994 13.7645 207.126 14.005 206.676 13.8607C206.227 13.7165 206.714 13.5081 206.818 13.403V13.4048Z" fill="#2D255C"/>
<path d="M219.061 16.4287C219.061 16.4287 220.205 16.3682 220.38 16.2631C220.553 16.158 220.83 16.231 220.769 15.2088C220.708 14.1866 220.667 10.4165 220.667 10.4165L220.774 9.99447C220.774 9.99447 220.676 9.42993 220.679 8.93663C220.683 8.44334 220.585 7.77373 220.005 6.60549C220.005 6.60549 219.117 4.97778 217.331 7.28756C217.331 7.28756 217.154 7.60277 217.499 7.88771C217.844 8.17265 217.702 8.55909 217.702 8.55909L217.629 9.08623C217.629 9.08623 215.826 9.07198 214.532 10.7175C214.532 10.7175 214.665 11.4583 215.289 11.2874C215.914 11.1164 215.982 11.2233 216.259 11.3301C216.536 11.4387 217.471 11.4102 217.471 11.4102C217.471 11.4102 217.956 11.4494 217.709 11.9053C217.709 11.9053 217.844 12.4449 217.394 12.5126C216.935 12.5803 216.424 12.6177 215.954 12.6301C215.618 12.639 214.844 13.0967 214.683 13.3977C214.401 13.9248 213.884 13.5669 214.399 14.0993C214.399 14.0993 215.748 14.4983 216.163 14.5357C216.578 14.5748 216.578 14.7155 217.131 14.7191C217.131 14.7191 217.065 14.2596 217.511 14.7921C217.511 14.7921 217.65 14.8633 217.611 15.1447C217.574 15.4261 217.676 15.8856 217.883 15.9568C218.091 16.028 217.571 15.8482 217.431 16.0583C217.291 16.2684 216.874 16.3005 216.874 16.3005C216.874 16.3005 216.595 16.475 216.245 16.8597C216.245 16.8597 216.242 17.2817 216.622 17.4616C217.002 17.6397 216.862 17.7804 216.862 17.7804C216.862 17.7804 213.255 17.9977 212.944 17.9941C212.632 17.9923 211.765 18.0546 210.795 17.9068C209.825 17.7572 208.714 18.1009 208.126 17.9905C207.537 17.8801 206.98 18.1223 206.842 18.1205C206.704 18.1205 206.392 18.117 206.29 17.8C206.189 17.4812 204.602 16.6584 203.977 16.6887C203.353 16.719 202.22 17.198 203.374 18.304C204.337 19.2282 203.774 20.3519 203.774 20.3519C203.774 20.3519 203.42 21.4062 203.521 21.5131C203.625 21.6199 203.308 22.2165 203.134 22.2147C202.961 22.2147 203.714 23.5237 205.169 23.358C206.627 23.1942 206.19 22.6172 207.299 22.5549C207.299 22.5549 212.121 22.1631 213.044 22.4356C214.15 22.7615 214.742 22.343 216.333 22.7793L217.65 22.8612C217.65 22.8612 217.548 22.4373 218.203 22.9716C218.856 23.5059 220.562 22.6386 220.639 21.652C220.716 20.6654 220.981 17.9549 220.327 17.28C219.674 16.605 219.052 16.4234 219.052 16.4234L219.061 16.4287ZM217.506 20.2914C217.506 20.2914 217.226 20.6422 217.432 20.8542C217.639 21.0679 216.462 20.9165 215.735 20.8399C215.009 20.7633 211.996 20.4214 210.572 20.7633C210.572 20.7633 209.751 20.7224 209.056 20.9966C209.056 20.9966 207.245 20.9111 207.035 21.2264C207.035 21.2264 206.238 21.3955 206.658 20.66C206.658 20.66 206.833 20.4143 206.733 19.8497C206.733 19.8497 209.646 19.5203 212.452 19.8266C215.255 20.1311 217.061 19.6165 217.061 19.6165C217.061 19.6165 218.068 19.4491 217.506 20.2896V20.2914Z" fill="#2D255C"/>
<path d="M79.0282 12.1493C79.1665 12.2312 80.6254 12.5838 80.6254 12.5838C81.3768 12.4894 80.9599 12.8688 80.9599 12.8688L80.5221 13.127C80.5221 13.127 78.7935 14.2382 78.804 15.5044C78.8145 16.7706 79.2243 17.3369 79.2243 17.3369C79.417 18.0813 81.6465 18.6031 82.9495 18.653C84.2543 18.7046 87.0407 18.726 87.9216 17.3067C88.8026 15.8873 88.687 15.6042 88.4768 14.5784C88.2666 13.5526 86.8708 12.7975 86.2 12.5696C85.8463 12.4503 86.4084 12.3879 86.5118 12.3755C86.6099 12.3648 87.701 12.3185 87.701 12.322C87.7307 11.9249 88.3665 11.7629 88.6187 11.5438C88.9812 11.2286 89.2772 10.8439 89.5977 10.486C90.2562 9.7487 88.4996 9.35157 88.4996 9.35157C87.8306 9.0043 85.9478 9.63116 85.9478 9.63116C85.9478 9.63116 85.8305 9.55102 85.7727 9.34801C85.7149 9.14677 85.9724 9.14855 85.9724 9.14855C85.9058 7.60098 84.3663 7.18604 84.3663 7.18604C81.6622 6.78179 81.6517 8.08894 81.5922 8.16908C81.5274 8.25634 81.3855 8.56265 81.403 8.66772C81.4205 8.78169 81.6272 8.9117 81.7446 8.85293C81.8636 8.79238 82.1001 8.85471 82.3523 9.4602C82.6045 10.0657 81.8742 9.81815 81.8742 9.81815C79.3855 9.47623 77.508 9.5813 77.508 9.5813C75.7899 9.48691 76.2785 10.0532 76.2785 10.0532C76.5535 10.1957 76.7286 10.6195 76.2733 10.6961C75.8179 10.7727 75.951 11.3568 76.543 11.6827C77.1332 12.0086 77.7847 12.1155 77.7847 12.1155C78.4187 11.9997 78.8916 12.0638 79.0299 12.1457L79.0282 12.1493ZM81.298 15.102C81.298 15.102 81.8146 14.6835 82.0738 14.4039C82.333 14.1243 83.1439 14.0103 83.1246 13.8696C83.1054 13.7289 83.8585 13.5936 83.9548 13.8767C84.0511 14.1581 84.1702 14.2204 84.1702 14.2204C84.2893 14.2204 84.5432 14.4644 84.5432 14.4644C85.1159 14.6087 85.1737 14.7707 85.1737 14.7707C85.5853 15.2159 84.235 16.0102 83.9373 16.1473C83.6395 16.2862 81.5081 15.8268 81.1543 15.5614C80.8006 15.2979 81.2962 15.1002 81.2962 15.1002L81.298 15.102Z" fill="#2D255C"/>
<path d="M96.3557 10.5216C96.3557 10.5216 95.7638 10.4575 95.6639 10.5572C95.5641 10.6569 95.2278 10.6748 95.2506 10.413C95.2716 10.153 95.4047 8.3436 95.0352 7.7577C94.6639 7.1718 93.5816 6.68028 92.9283 6.79604C92.9283 6.79604 91.7601 7.0881 91.7356 7.65085C91.7111 8.2136 91.8284 8.4558 92.0649 8.53772C92.3013 8.61964 92.1314 10.1067 92.1314 10.1067C92.1314 10.1067 91.8792 12.0745 91.8722 12.9596C91.8652 13.8429 92.0369 14.6496 91.9458 16.0547C91.9458 16.0547 92.0509 17.7644 92.5623 18.19C93.0737 18.6156 93.9826 18.5426 94.8198 17.686C94.8198 17.686 95.058 17.588 95.114 15.4777C95.114 15.4777 94.8706 13.6862 95.128 13.7093C95.3855 13.7307 94.797 13.184 95.8443 13.1733C95.8443 13.1733 97.1123 12.8225 97.5677 12.7851C98.023 12.7495 98.291 11.3444 98.1929 11.1022C98.0966 10.86 96.9512 10.5483 96.3592 10.5234L96.3557 10.5216Z" fill="#2D255C"/>
<path d="M94.7085 21.6448C93.7786 21.6769 90.775 21.5327 90.775 21.5327L84.7275 21.4632C84.3002 21.4596 83.8728 21.4685 83.4472 21.4864C83.0865 21.5024 82.7239 21.5184 82.3649 21.5558C81.9971 21.595 81.6556 21.7268 81.2826 21.6947C81.1722 21.684 80.3859 21.6217 80.3789 21.7285C80.3789 21.7285 80.5785 18.9558 79.7501 18.8489C78.92 18.742 78.1301 18.7349 77.7676 19.4758C77.7676 19.4758 77.7448 19.9174 77.9024 20.0189C78.06 20.1204 78.0951 20.6832 77.8954 20.8826C77.6958 21.0821 76.9252 23.6893 77.9462 24.5815C78.0355 24.6777 78.1248 24.7738 78.2142 24.87C78.4208 25.0944 78.6047 24.9804 78.8149 24.8629C79.0496 24.7311 79.3193 24.667 79.5662 24.5637C80.2913 24.2609 81.0847 24.0561 81.8588 23.9404C82.3754 23.862 82.8851 23.8104 83.4087 23.8228C85.9587 23.8852 89.0989 24.1505 90.1672 24.0989C91.2356 24.0472 94.9275 24.6403 95.5264 23.7213C96.1272 22.8006 96.7787 22.8469 96.0536 22.0366C96.0536 22.0366 95.642 21.611 94.712 21.6431L94.7085 21.6448Z" fill="#2D255C"/>
<path d="M240.731 18.3503C239.841 18.4642 239.862 18.222 239.764 18.1615C239.666 18.1009 236.564 17.7946 235.636 17.8659C234.706 17.9389 234.569 17.6967 234.569 17.6967C234.52 17.6183 234.561 17.3744 234.557 17.2817C234.55 17.0876 234.536 16.8846 234.543 16.6941C234.827 16.7261 235.2 16.8472 235.468 16.6994C235.646 16.5997 236.398 16.5267 236.498 16.5071C236.596 16.4875 236.457 16.5872 237.45 15.9123C238.443 15.2373 238.594 13.8304 238.594 13.8304C238.568 12.1422 236.384 10.7371 236.384 10.7371C235.89 10.7139 235.972 10.4521 236.07 10.4735C236.17 10.4949 235.715 10.5715 237.496 10.1832C239.277 9.79679 239.478 9.35514 240.055 9.03814C240.631 8.72115 239.941 8.43443 239.902 8.35251C239.864 8.27237 239.51 8.0284 239.214 7.96428C238.918 7.90195 238.524 7.81825 238.524 7.81825C238.133 7.73633 237.874 7.51017 237.468 7.73455C237.371 7.78798 237.307 7.88949 237.216 7.93935C237.06 8.02483 236.886 7.96785 236.72 7.98387C236.527 7.9999 236.335 8.03018 236.144 8.06045C235.801 8.11566 235.452 8.18689 235.102 8.17265C234.51 8.14771 234.79 7.66688 234.79 7.66688C235.205 7.73099 234.934 7.08454 234.934 7.08454C233.187 5.44259 231.205 6.14959 231.205 6.14959C229.301 6.89755 230.797 7.69537 230.916 7.73455C231.033 7.77551 230.932 8.27772 230.932 8.27772L230.457 8.31333L229.867 8.14771C227.182 7.66332 225.991 8.35785 225.991 8.35785C224.322 9.46911 225.942 9.60446 226.002 9.60446C226.061 9.60446 230.088 10.3613 230.8 10.2865C231.513 10.2117 231.233 10.4913 231.233 10.4913C229.72 11.8466 229.424 11.7219 229.226 11.8822C229.026 12.0407 228.054 12.4752 227.867 13.7004C227.679 14.9257 230.084 15.8891 230.636 16.1349C231.187 16.3806 230.949 16.4394 230.949 16.4394C230.918 16.4483 230.935 17.0894 230.93 17.1482C230.904 17.5061 230.674 17.6753 230.443 17.9229C230.144 18.2416 227.651 18.5426 227.651 18.5426C227.115 18.5497 226.362 18.5907 225.933 18.9825C225.793 19.1107 225.711 19.2923 225.567 19.4259C225.345 19.6289 225.047 19.8302 224.991 20.1561C224.951 20.3911 224.991 20.6921 225.242 20.7936C225.597 20.9379 226.306 21.2246 226.306 21.2246C226.306 21.2246 228.322 21.2602 229.334 20.8061C230.345 20.3519 233.487 20.5585 233.487 20.5585C233.487 20.5585 237.498 20.8132 237.617 20.8132C237.736 20.8132 237.478 20.7313 238.764 20.6209C240.049 20.5104 239.435 20.8684 240.622 20.6974C241.809 20.5265 241.429 18.5942 241.429 18.5942C241.429 18.5942 241.629 18.2345 240.739 18.3485L240.731 18.3503ZM234.226 13.6132C233.865 14.2133 233.627 14.3326 232.678 14.4039C232.678 14.4039 232.047 14.2383 231.947 14.1973C231.849 14.1563 230.923 13.7467 230.923 13.7467C230.923 13.7467 230.527 13.663 231.065 13.1448C231.065 13.1448 232.04 12.3488 232.04 12.249C232.04 12.1493 232.617 11.9125 232.617 11.9125C232.617 11.9125 232.935 11.6934 233.86 12.2437C234.785 12.794 234.583 13.013 234.224 13.6132H234.226Z" fill="#2D255C"/>
<path d="M244.729 14.5481C244.708 14.1813 244.631 13.8269 244.665 13.4565C244.773 12.2419 244.553 10.9793 244.558 9.76117C244.558 9.54569 244.523 9.33198 244.537 9.11472C244.553 8.8743 244.616 8.83334 244.766 8.67663C245.05 8.38278 245.071 7.76661 244.849 7.42824C244.849 7.42824 244.204 6.43808 243.87 6.31521C243.87 6.31521 241.94 5.41587 241.847 7.28399C241.847 7.28399 241.92 7.98743 242.115 8.45224C242.309 8.91704 242.367 9.03814 242.265 9.45842C242.162 9.88049 242.411 11.1271 242.209 11.6489C242.008 12.1707 242.05 14.281 242.01 14.3611C241.969 14.4413 241.945 17.5168 241.945 17.5168C241.945 17.5168 241.735 21.6965 242.164 22.3216C242.595 22.9484 243.791 24.0633 244.582 21.2548L244.623 18.5818C244.568 17.5845 244.528 16.573 244.595 15.5775C244.617 15.2355 244.747 14.8705 244.729 14.5481Z" fill="#2D255C"/>
</g>
<g clip-path="url(#clip2_108_1046)">
<path d="M76.001 38.4188H77.735V44.2825L80.9928 38.4188H83.2628L79.8071 44.2506L83.4397 52.6025H81.1803L78.5845 46.4104L77.735 47.8586V52.6042H76.001V38.4188Z" fill="#2D255C"/>
<path d="M90.1053 51.3477C89.4695 52.4481 88.5517 53 87.3502 53C86.1486 53 85.2308 52.4481 84.595 51.3477C83.7438 49.9954 83.3164 48.0432 83.3164 45.4982C83.3164 42.9533 83.7438 40.9532 84.595 39.6505C85.2308 38.5519 86.1469 38 87.3502 38C88.5535 38 89.4695 38.5519 90.1053 39.6523C90.9531 40.9549 91.377 42.9054 91.377 45.5C91.377 48.0947 90.9531 49.9954 90.1053 51.3495V51.3477ZM89.0159 49.1914C89.424 48.3289 89.6289 47.0973 89.6289 45.5C89.6289 43.9028 89.424 42.6835 89.0159 41.8121C88.606 40.9425 88.0525 40.5095 87.3572 40.5095C86.6618 40.5095 86.1031 40.9407 85.688 41.8086C85.2729 42.6711 85.0644 43.9028 85.0644 45.5C85.0644 47.0973 85.2729 48.3307 85.688 49.1914C86.1031 50.0611 86.6601 50.4923 87.3572 50.4923C88.0543 50.4923 88.606 50.0611 89.0159 49.1914Z" fill="#2D255C"/>
<path d="M97.3277 38.7827C97.6377 39.0081 97.8987 39.3382 98.1141 39.773C98.2928 40.1332 98.4329 40.5325 98.538 40.9656C98.6431 41.4022 98.6939 41.9009 98.6939 42.4563C98.6939 43.1307 98.5923 43.7909 98.3944 44.444C98.1929 45.0954 97.8637 45.555 97.403 45.823C97.7883 46.0874 98.0581 46.4619 98.2175 46.9482C98.3769 47.4309 98.4592 48.171 98.4592 49.1666V50.1196C98.4592 50.7692 98.4732 51.2075 98.5047 51.44C98.5538 51.8038 98.6624 52.0718 98.8375 52.2475V52.6042H96.9073C96.8548 52.2883 96.8162 52.0346 96.7952 51.8429C96.7514 51.4471 96.7252 51.0407 96.7217 50.6219L96.7129 49.3015C96.7041 48.3928 96.6113 47.7947 96.4327 47.4913C96.2523 47.1895 95.9177 47.0387 95.4255 47.0387H93.7003V52.6025H91.9785V38.4188H96.0018C96.5745 38.4384 97.0194 38.559 97.3294 38.7827H97.3277ZM93.6985 40.8591V44.6854H95.5954C95.972 44.6854 96.254 44.6073 96.4432 44.4511C96.7777 44.1814 96.9459 43.6507 96.9459 42.8486C96.9459 41.986 96.783 41.4057 96.4589 41.1093C96.2785 40.9443 96.0053 40.8591 95.6445 40.8591H93.6985Z" fill="#2D255C"/>
<path d="M105.722 40.9248H101.366V43.9382H105.358V46.3803H101.366V50.0522H105.931V52.6042H99.6445V38.4188H105.722V40.9248Z" fill="#2D255C"/>
<path d="M109.007 38.4188H110.998L113.965 52.6042H112.061L111.506 49.6777H108.415L107.842 52.6042H106.001L109.007 38.4188ZM108.895 47.2375H111.044L109.986 41.6595L108.895 47.2375Z" fill="#2D255C"/>
<path d="M114.231 38.4188H116.069L119.421 48.2952V38.4188H121.052V52.6042H119.302L115.86 42.522V52.6042H114.229V38.4188H114.231Z" fill="#2D255C"/>
<path d="M124.366 38.4188H126.114V50.0522H130.327V52.6042H124.366V38.4188Z" fill="#2D255C"/>
<path d="M132.337 52.6042H130.589V38.4188H132.337V52.6042Z" fill="#2D255C"/>
<path d="M139.462 39.9274C139.719 40.5308 139.849 41.2513 139.849 42.0925C139.849 42.9337 139.719 43.6543 139.462 44.1796C139.316 44.4724 139.103 44.7422 138.823 44.9871C139.253 45.248 139.576 45.6668 139.795 46.2383C140.014 46.8098 140.124 47.5019 140.124 48.3165C140.124 49.1311 140 49.9138 139.749 50.5828C139.588 51.023 139.39 51.3957 139.152 51.6991C138.884 52.0452 138.569 52.2812 138.202 52.4126C137.836 52.5404 137.439 52.6042 137.013 52.6042H133.225V38.4188H137.286C138.311 38.4437 139.038 38.9495 139.464 39.9291L139.462 39.9274ZM134.906 40.8591V44.0039H136.941C137.304 44.0039 137.6 43.885 137.826 43.6507C138.052 43.4165 138.167 42.9994 138.167 42.396C138.167 41.7323 138.017 41.2975 137.717 41.0809C137.458 40.9336 137.129 40.8591 136.728 40.8591H134.908H134.906ZM134.906 46.3572V50.1622H136.945C137.309 50.1622 137.593 50.077 137.796 49.9102C138.162 49.5961 138.348 49.0051 138.348 48.1284C138.348 47.3865 138.167 46.8736 137.814 46.5986C137.614 46.4424 137.334 46.3643 136.973 46.3554H134.906V46.3572Z" fill="#2D255C"/>
<path d="M146.242 38.7827C146.552 39.0081 146.815 39.3382 147.029 39.773C147.206 40.1332 147.346 40.5325 147.451 40.9656C147.554 41.4022 147.607 41.9009 147.607 42.4563C147.607 43.1307 147.505 43.7909 147.307 44.444C147.108 45.0954 146.777 45.555 146.316 45.823C146.701 46.0874 146.971 46.4619 147.13 46.9482C147.293 47.4309 147.372 48.171 147.372 49.1666V50.1196C147.372 50.7692 147.388 51.2075 147.419 51.44C147.467 51.8038 147.577 52.0718 147.75 52.2475V52.6042H145.82C145.768 52.2883 145.731 52.0346 145.71 51.8429C145.664 51.4471 145.64 51.0407 145.636 50.6219L145.624 49.3015C145.617 48.3928 145.524 47.7947 145.344 47.4913C145.165 47.1895 144.829 47.0387 144.338 47.0387H142.611V52.6025H140.89V38.4188H144.913C145.486 38.4384 145.929 38.559 146.239 38.7827H146.242ZM142.613 40.8591V44.6854H144.512C144.89 44.6854 145.172 44.6073 145.361 44.4511C145.694 44.1814 145.862 43.6507 145.862 42.8486C145.862 41.986 145.701 41.4057 145.379 41.1093C145.197 40.9443 144.925 40.8591 144.563 40.8591H142.615H142.613Z" fill="#2D255C"/>
<path d="M150.912 38.4188H152.904L155.871 52.6042H153.967L153.412 49.6777H150.322L149.749 52.6042H147.908L150.912 38.4188ZM150.798 47.2375H152.949L151.891 41.6595L150.798 47.2375Z" fill="#2D255C"/>
<path d="M161.552 38.7827C161.862 39.0081 162.127 39.3382 162.342 39.773C162.517 40.1332 162.659 40.5325 162.764 40.9656C162.868 41.4022 162.92 41.9009 162.92 42.4563C162.92 43.1307 162.82 43.7909 162.621 44.444C162.423 45.0954 162.09 45.555 161.631 45.823C162.015 46.0874 162.286 46.4619 162.447 46.9482C162.608 47.4309 162.687 48.171 162.687 49.1666V50.1196C162.687 50.7692 162.703 51.2075 162.735 51.44C162.78 51.8038 162.89 52.0718 163.064 52.2475V52.6042H161.134C161.081 52.2883 161.046 52.0346 161.023 51.8429C160.978 51.4471 160.955 51.0407 160.952 50.6219L160.939 49.3015C160.932 48.3928 160.839 47.7947 160.661 47.4913C160.48 47.1895 160.146 47.0387 159.654 47.0387H157.925V52.6025H156.203V38.4188H160.226C160.801 38.4384 161.244 38.559 161.552 38.7827ZM157.923 40.8591V44.6854H159.824C160.2 44.6854 160.484 44.6073 160.671 44.4511C161.004 44.1814 161.17 43.6507 161.17 42.8486C161.17 41.986 161.011 41.4057 160.689 41.1093C160.507 40.9443 160.235 40.8591 159.873 40.8591H157.923Z" fill="#2D255C"/>
<path d="M168.608 38.4188H170.597L167.783 47.296V52.606H166.036V47.3191L163.129 38.4188H165.199L166.937 44.5949L168.608 38.4188Z" fill="#2D255C"/>
<path d="M175.722 38.4188H177.713L180.68 52.6042H178.776L178.221 49.6777H175.13L174.557 52.6042H172.718L175.722 38.4188ZM175.61 47.2375H177.759L176.701 41.6595L175.61 47.2375Z" fill="#2D255C"/>
<path d="M182.239 48.2047C182.294 48.8542 182.402 49.3405 182.56 49.66C182.853 50.2421 183.35 50.5367 184.058 50.5367C184.48 50.5367 184.823 50.4604 185.087 50.306C185.588 50.0114 185.839 49.463 185.839 48.659C185.839 48.1905 185.715 47.8284 185.468 47.5729C185.219 47.3226 184.828 47.1026 184.299 46.9091L183.39 46.5737C182.499 46.2383 181.884 45.8816 181.551 45.4876C180.984 44.8363 180.7 43.8122 180.7 42.4226C180.7 41.1519 180.978 40.096 181.532 39.2583C182.084 38.4206 182.896 37.9982 183.968 37.9982C184.862 37.9982 185.625 38.3975 186.258 39.1891C186.886 39.9806 187.219 41.1306 187.247 42.6391H185.566C185.536 41.7837 185.31 41.1803 184.893 40.8165C184.615 40.5805 184.266 40.4616 183.851 40.4616C183.39 40.4616 183.021 40.616 182.746 40.923C182.471 41.2318 182.332 41.6648 182.332 42.2132C182.332 42.719 182.469 43.0988 182.74 43.349C182.916 43.5159 183.287 43.7075 183.856 43.9329L185.326 44.5186C185.972 44.7759 186.455 45.1149 186.778 45.5479C187.277 46.217 187.524 47.1789 187.524 48.4425C187.524 49.7061 187.228 50.8135 186.634 51.6707C186.04 52.5279 185.203 52.9556 184.121 52.9556C183.038 52.9556 182.145 52.535 181.513 51.6885C180.879 50.8437 180.562 49.6813 180.562 48.2047H182.243H182.239Z" fill="#2D255C"/>
<path d="M189.252 48.2047C189.305 48.8542 189.412 49.3405 189.571 49.66C189.862 50.2421 190.359 50.5367 191.067 50.5367C191.491 50.5367 191.834 50.4604 192.097 50.306C192.6 50.0114 192.85 49.463 192.85 48.659C192.85 48.1905 192.724 47.8284 192.477 47.5729C192.228 47.3226 191.839 47.1026 191.307 46.9091L190.398 46.5737C189.506 46.2383 188.893 45.8816 188.557 45.4876C187.993 44.8363 187.709 43.8122 187.709 42.4226C187.709 41.1519 187.984 40.096 188.538 39.2583C189.091 38.4206 189.902 37.9982 190.972 37.9982C191.866 37.9982 192.629 38.3975 193.262 39.1891C193.894 39.9806 194.223 41.1306 194.256 42.6391H192.573C192.54 41.7837 192.316 41.1803 191.899 40.8165C191.619 40.5805 191.274 40.4616 190.857 40.4616C190.394 40.4616 190.028 40.616 189.752 40.923C189.477 41.2318 189.34 41.6648 189.34 42.2132C189.34 42.719 189.473 43.0988 189.745 43.349C189.92 43.5159 190.291 43.7075 190.859 43.9329L192.332 44.5186C192.976 44.7759 193.46 45.1149 193.778 45.5479C194.278 46.217 194.53 47.1789 194.53 48.4425C194.53 49.7061 194.234 50.8135 193.64 51.6707C193.046 52.5279 192.209 52.9556 191.125 52.9556C190.041 52.9556 189.149 52.535 188.515 51.6885C187.883 50.8437 187.567 49.6813 187.567 48.2047H189.251H189.252Z" fill="#2D255C"/>
<path d="M201.473 51.3477C200.837 52.4481 199.919 53 198.718 53C197.516 53 196.598 52.4481 195.962 51.3477C195.111 49.9954 194.686 48.0432 194.686 45.4982C194.686 42.9533 195.113 40.9532 195.962 39.6505C196.598 38.5502 197.514 37.9982 198.718 37.9982C199.921 37.9982 200.837 38.5502 201.473 39.6505C202.32 40.9532 202.744 42.9036 202.744 45.4982C202.744 48.0929 202.32 49.9936 201.473 51.3477ZM200.383 49.1914C200.791 48.3289 200.996 47.0973 200.996 45.5C200.996 43.9027 200.791 42.6835 200.383 41.8121C199.972 40.9425 199.418 40.5095 198.723 40.5095C198.027 40.5095 197.469 40.9407 197.054 41.8086C196.639 42.6711 196.432 43.9027 196.432 45.5C196.432 47.0973 196.64 48.3307 197.054 49.1914C197.469 50.0611 198.026 50.4923 198.723 50.4923C199.42 50.4923 199.972 50.0611 200.383 49.1914Z" fill="#2D255C"/>
<path d="M204.103 39.9043C204.779 38.7401 205.639 38.1544 206.681 38.1544C208.077 38.1544 209.099 38.9371 209.745 40.4988C210.102 41.3791 210.293 42.2611 210.321 43.1467H208.573C208.461 42.4617 208.319 41.9417 208.142 41.5921C207.829 40.9709 207.368 40.6603 206.755 40.6603C206.142 40.6603 205.638 41.0969 205.279 41.9665C204.918 42.8415 204.739 44.0731 204.739 45.6704C204.739 47.2676 204.928 48.4603 205.307 49.2571C205.688 50.0486 206.168 50.4479 206.753 50.4479C207.338 50.4479 207.809 50.1037 208.127 49.4204C208.298 49.053 208.444 48.4975 208.559 47.7628H210.307C210.155 49.3103 209.773 50.5704 209.153 51.543C208.536 52.5102 207.745 52.9982 206.78 52.9982C205.587 52.9982 204.648 52.3434 203.963 51.0354C203.28 49.7221 202.938 47.9207 202.938 45.6278C202.938 43.152 203.326 41.246 204.101 39.9043H204.103Z" fill="#2D255C"/>
<path d="M212.565 52.6042H210.817V38.4188H212.565V52.6042Z" fill="#2D255C"/>
<path d="M215.826 38.4188H217.818L220.787 52.6042H218.881L218.326 49.6777H215.236L214.665 52.6042H212.824L215.826 38.4188ZM215.714 47.2375H217.863L216.804 41.6595L215.716 47.2375H215.714Z" fill="#2D255C"/>
<path d="M227.222 38.4188V40.9248H224.691V52.6042H222.919V40.9248H220.388V38.4188H227.222Z" fill="#2D255C"/>
<path d="M229.04 52.6042H227.292V38.4188H229.04V52.6042Z" fill="#2D255C"/>
<path d="M236.372 51.3477C235.738 52.4481 234.82 53 233.617 53C232.414 53 231.499 52.4481 230.864 51.3477C230.012 49.9954 229.585 48.0432 229.585 45.4982C229.585 42.9533 230.012 40.9532 230.864 39.6505C231.499 38.5502 232.417 37.9982 233.617 37.9982C234.817 37.9982 235.738 38.5502 236.372 39.6505C237.22 40.9532 237.644 42.9036 237.644 45.4982C237.644 48.0929 237.22 49.9936 236.372 51.3477ZM235.283 49.1914C235.693 48.3289 235.896 47.0973 235.896 45.5C235.896 43.9027 235.693 42.6835 235.283 41.8121C234.873 40.9425 234.321 40.5095 233.624 40.5095C232.927 40.5095 232.372 40.9407 231.955 41.8086C231.54 42.6711 231.331 43.9027 231.331 45.5C231.331 47.0973 231.54 48.3307 231.955 49.1914C232.372 50.0611 232.927 50.4923 233.624 50.4923C234.321 50.4923 234.873 50.0611 235.283 49.1914Z" fill="#2D255C"/>
<path d="M238.178 38.4188H240.013L243.367 48.2952V38.4188H244.998V52.6042H243.246L239.806 42.522V52.6042H238.176V38.4188H238.178Z" fill="#2D255C"/>
</g>
<defs>
<clipPath id="clip0_108_1046">
<rect width="64" height="64" fill="white"/>
</clipPath>
<clipPath id="clip1_108_1046">
<rect width="169" height="19" fill="white" transform="translate(76 6)"/>
</clipPath>
<clipPath id="clip2_108_1046">
<rect width="169" height="15" fill="white" transform="translate(76 38)"/>
</clipPath>
</defs>
</svg>
