<svg width="55" height="55" viewBox="0 0 55 55" fill="none" xmlns="http://www.w3.org/2000/svg">
<g clip-path="url(#clip0_137_1159)">
<path d="M27.5005 0.927017C12.8239 0.927017 0.926758 12.823 0.926758 27.4985C0.926758 42.174 12.8239 54.073 27.5005 54.073C42.1771 54.073 54.0713 42.1755 54.0713 27.4985C54.0713 12.8215 42.1756 0.927017 27.5005 0.927017Z" stroke="#2D255C" stroke-width="1.71804"/>
<path d="M27.4992 0C12.3117 0 0 12.312 0 27.5C0 42.688 12.3117 55.0015 27.4992 55.0015C42.6868 55.0015 55 42.6895 55 27.5C55 12.3105 42.6868 0 27.4992 0ZM27.5927 53.981C12.9161 53.981 1.01894 42.0821 1.01894 27.4081C1.01894 12.734 12.9161 0.833562 27.5927 0.833562C42.2693 0.833562 54.1634 12.731 54.1634 27.4081C54.1634 42.0851 42.2663 53.981 27.5927 53.981Z" fill="#2D255C"/>
<path d="M27.8742 3.68998L27.8712 3.66285C27.8546 3.66285 27.82 3.67189 27.7943 3.67792C27.7687 3.6734 27.734 3.66285 27.716 3.66285V3.68998C25.5771 4.24318 8.33203 13.6807 8.33203 13.6807C8.33203 13.6807 10.5568 13.6807 11.1145 14.1449C11.6707 14.6092 11.7642 15.3508 11.7642 15.3508H43.823C43.823 15.3508 43.9165 14.6092 44.4711 14.1449C45.0288 13.6807 47.2551 13.6807 47.2551 13.6807C47.2551 13.6807 30.0342 4.25524 27.8742 3.69149V3.68998Z" fill="#2D255C"/>
<path d="M41.5973 33.0636C42.8966 33.0636 44.5667 33.4359 44.5667 35.8462C44.5667 38.2564 43.1755 38.9995 41.5039 38.9995H11.085C11.085 38.9995 12.6616 38.1645 12.6616 36.217C12.6616 34.2695 11.1784 33.0636 11.1784 33.0636H41.5988H41.5973Z" fill="#2D255C"/>
<path d="M14.0513 40.2989C12.7535 40.2989 11.085 40.6697 11.085 43.0814C11.085 45.4932 12.4747 46.2348 14.1448 46.2348H44.5667C44.5667 46.2348 42.9885 45.3997 42.9885 43.4522C42.9885 41.5047 44.4717 40.2989 44.4717 40.2989H14.0513Z" fill="#2D255C"/>
<path d="M34.3408 24.9028H37.1158L35.7517 20.9973L34.3408 24.9028Z" fill="#2D255C"/>
<path d="M41.504 16.4632C40.1143 16.4632 31.488 16.3713 30.8398 16.3713C30.1917 16.3713 29.0763 16.3713 28.6135 16.9275C28.3061 17.2968 27.8946 17.6088 27.6398 17.7882C27.3851 17.6088 26.9721 17.2953 26.6646 16.9275C26.2019 16.3713 25.088 16.3713 24.4383 16.3713C23.7887 16.3713 15.1654 16.4632 13.7741 16.4632C12.3829 16.4632 11.2705 16.834 11.2705 18.2253V28.9847C11.2705 29.8183 11.4559 30.0037 11.9186 30.4695C12.3829 30.9322 12.8456 30.9322 13.7741 30.9322H24.1625C24.7172 30.9322 25.7391 30.6534 26.2019 31.1176C26.5847 31.5005 27.3354 32.3778 27.5916 32.6777V32.7878C27.5916 32.7878 27.6097 32.7667 27.6398 32.732C27.6685 32.7667 27.6866 32.7878 27.6866 32.7878V32.6777C27.9428 32.3778 28.6949 31.502 29.0778 31.1176C29.542 30.6534 30.5625 30.9322 31.1187 30.9322H41.5055C42.434 30.9322 42.8983 30.9322 43.361 30.4695C43.8253 30.0052 44.0107 29.8198 44.0107 28.9847V18.2253C44.0107 16.834 42.8983 16.4632 41.5055 16.4632H41.504ZM23.24 28.519L20.0958 24.0798L18.6653 25.441V28.519H17.5062V19.6859H18.6653V24.003L23.0501 19.6859H24.7172L20.976 23.2433L24.797 28.519H23.2385H23.24ZM31.3553 28.519H25.6984V19.6859H26.9043V27.4774H31.3553V28.519ZM38.3779 28.519L37.4554 25.8766H33.9871L33.0314 28.519H31.8045L35.1251 19.6859H36.4756L39.6892 28.519H38.3764H38.3779Z" fill="#2D255C"/>
</g>
<defs>
<clipPath id="clip0_137_1159">
<rect width="55" height="55" fill="white"/>
</clipPath>
</defs>
</svg>
