<svg width="2886" height="1269" viewBox="0 0 2886 1269" fill="none" xmlns="http://www.w3.org/2000/svg">
<g opacity="0.5">
<path d="M812.297 396H579V630.18H812.297V396Z" stroke="#3860AF" stroke-opacity="0.5" stroke-miterlimit="10"/>
<path d="M831.57 410.866H598.273V645.047H831.57V410.866Z" stroke="#3860AF" stroke-opacity="0.5" stroke-miterlimit="10"/>
<path d="M850.815 425.733H617.519V659.913H850.815V425.733Z" stroke="#3860AF" stroke-opacity="0.5" stroke-miterlimit="10"/>
<path d="M870.089 440.6H636.792V674.78H870.089V440.6Z" stroke="#3860AF" stroke-opacity="0.5" stroke-miterlimit="10"/>
<path d="M889.33 455.439H656.033V689.62H889.33V455.439Z" stroke="#3860AF" stroke-opacity="0.5" stroke-miterlimit="10"/>
<path d="M908.604 470.306H675.308V704.487H908.604V470.306Z" stroke="#3860AF" stroke-opacity="0.5" stroke-miterlimit="10"/>
<path d="M927.875 485.172H694.578V719.353H927.875V485.172Z" stroke="#3860AF" stroke-opacity="0.5" stroke-miterlimit="10"/>
<path d="M947.122 500.013H713.825V734.193H947.122V500.013Z" stroke="#3860AF" stroke-opacity="0.5" stroke-miterlimit="10"/>
<path d="M966.391 514.879H733.094V749.059H966.391V514.879Z" stroke="#3860AF" stroke-opacity="0.5" stroke-miterlimit="10"/>
<path d="M985.664 529.746H752.367V763.926H985.664V529.746Z" stroke="#3860AF" stroke-opacity="0.5" stroke-miterlimit="10"/>
<path d="M1004.91 544.612H771.618V778.793H1004.91V544.612Z" stroke="#3860AF" stroke-opacity="0.5" stroke-miterlimit="10"/>
<path d="M1024.18 559.452H790.886V793.632H1024.18V559.452Z" stroke="#3860AF" stroke-opacity="0.5" stroke-miterlimit="10"/>
<path d="M1043.46 574.319H810.159V808.499H1043.46V574.319Z" stroke="#3860AF" stroke-opacity="0.5" stroke-miterlimit="10"/>
<path d="M1062.7 589.185H829.404V823.365H1062.7V589.185Z" stroke="#3860AF" stroke-opacity="0.5" stroke-miterlimit="10"/>
<path d="M1081.98 604.052H848.679V838.232H1081.98V604.052Z" stroke="#3860AF" stroke-opacity="0.5" stroke-miterlimit="10"/>
<path d="M1101.24 618.891H867.946V853.072H1101.24V618.891Z" stroke="#3860AF" stroke-opacity="0.5" stroke-miterlimit="10"/>
<path d="M1120.49 633.758H887.193V867.939H1120.49V633.758Z" stroke="#3860AF" stroke-opacity="0.5" stroke-miterlimit="10"/>
<path d="M1139.76 648.625H906.465V882.805H1139.76V648.625Z" stroke="#3860AF" stroke-opacity="0.5" stroke-miterlimit="10"/>
<path d="M1159.04 663.464H925.738V897.645H1159.04V663.464Z" stroke="#3860AF" stroke-opacity="0.5" stroke-miterlimit="10"/>
<path d="M1178.28 678.331H944.985V912.512H1178.28V678.331Z" stroke="#3860AF" stroke-opacity="0.5" stroke-miterlimit="10"/>
<path d="M1197.55 693.197H964.254V927.378H1197.55V693.197Z" stroke="#3860AF" stroke-opacity="0.5" stroke-miterlimit="10"/>
<path d="M1216.8 708.064H983.504V942.244H1216.8V708.064Z" stroke="#3860AF" stroke-opacity="0.5" stroke-miterlimit="10"/>
</g>
<path d="M2644.9 258.973C2710.63 249.313 2756.11 187.998 2746.49 122.022C2736.86 56.0456 2675.78 10.3925 2610.05 20.0527C2544.33 29.7128 2498.84 91.0281 2508.47 157.004C2518.09 222.98 2579.18 268.633 2644.9 258.973Z" stroke="#7592DB" stroke-opacity="0.5" stroke-miterlimit="10"/>
<path d="M2677.08 267.589C2732.03 230.128 2746.33 155.043 2709.01 99.8805C2671.69 44.7181 2596.89 30.3676 2541.94 67.8278C2486.98 105.288 2472.69 180.374 2510.01 235.536C2547.32 290.698 2622.13 305.049 2677.08 267.589Z" stroke="#7592DB" stroke-opacity="0.5" stroke-miterlimit="10"/>
<path d="M2631.66 310.75C2694.27 288.459 2727.02 219.444 2704.81 156.601C2682.61 93.7578 2613.85 60.8837 2551.25 83.1747C2488.64 105.466 2455.89 174.481 2478.1 237.324C2500.3 300.167 2569.06 333.041 2631.66 310.75Z" stroke="#7592DB" stroke-opacity="0.5" stroke-miterlimit="10"/>
<path d="M2645.42 326.143C2699.45 287.356 2711.93 211.944 2673.29 157.707C2634.65 103.469 2559.52 90.9445 2505.49 129.732C2451.45 168.519 2438.98 243.931 2477.62 298.168C2516.26 352.406 2591.39 364.931 2645.42 326.143Z" stroke="#7592DB" stroke-opacity="0.5" stroke-miterlimit="10"/>
<path d="M2647.39 344.909C2694.36 297.759 2694.36 221.315 2647.39 174.165C2600.42 127.016 2524.27 127.016 2477.29 174.165C2430.32 221.315 2430.32 297.759 2477.29 344.909C2524.27 392.059 2600.42 392.059 2647.39 344.909Z" stroke="#7592DB" stroke-opacity="0.5" stroke-miterlimit="10"/>
<path d="M2577.43 409.642C2642.37 395.608 2683.68 331.387 2669.7 266.201C2655.72 201.015 2591.74 159.549 2526.8 173.583C2461.86 187.617 2420.55 251.838 2434.53 317.023C2448.51 382.209 2512.49 423.676 2577.43 409.642Z" stroke="#7592DB" stroke-opacity="0.5" stroke-miterlimit="10"/>
<path d="M2559.83 444.195C2625.73 435.78 2672.35 375.336 2663.97 309.19C2655.59 243.043 2595.37 196.242 2529.47 204.657C2463.58 213.072 2416.95 273.516 2425.34 339.663C2433.72 405.809 2493.93 452.61 2559.83 444.195Z" stroke="#7592DB" stroke-opacity="0.5" stroke-miterlimit="10"/>
<path d="M2625.05 442.631C2672.02 395.482 2672.02 319.037 2625.05 271.887C2578.08 224.738 2501.92 224.738 2454.95 271.887C2407.98 319.037 2407.98 395.482 2454.95 442.631C2501.92 489.781 2578.08 489.781 2625.05 442.631Z" stroke="#7592DB" stroke-opacity="0.5" stroke-miterlimit="10"/>
<path d="M2623.15 475.604C2670.12 428.454 2670.12 352.01 2623.15 304.86C2576.18 257.711 2500.02 257.71 2453.05 304.86C2406.08 352.01 2406.08 428.454 2453.05 475.604C2500.02 522.753 2576.18 522.753 2623.15 475.604Z" stroke="#7592DB" stroke-opacity="0.5" stroke-miterlimit="10"/>
<path d="M2564.24 540.955C2629.18 526.921 2670.49 462.701 2656.51 397.515C2642.53 332.329 2578.55 290.862 2513.61 304.896C2448.67 318.93 2407.36 383.151 2421.34 448.337C2435.32 513.523 2499.3 554.99 2564.24 540.955Z" stroke="#7592DB" stroke-opacity="0.5" stroke-miterlimit="10"/>
<path d="M2649.19 511.454C2679.79 452.271 2656.8 379.393 2597.84 348.676C2538.88 317.959 2466.28 341.035 2435.68 400.219C2405.08 459.402 2428.07 532.28 2487.03 562.997C2545.99 593.714 2618.59 570.637 2649.19 511.454Z" stroke="#7592DB" stroke-opacity="0.5" stroke-miterlimit="10"/>
<path d="M2655.2 543.636C2685.8 484.453 2662.81 411.575 2603.85 380.858C2544.89 350.141 2472.29 373.218 2441.69 432.401C2411.09 491.584 2434.08 564.462 2493.04 595.179C2552 625.896 2624.6 602.819 2655.2 543.636Z" stroke="#7592DB" stroke-opacity="0.5" stroke-miterlimit="10"/>
<path d="M2641.98 604.753C2688.95 557.604 2688.95 481.159 2641.98 434.01C2595.01 386.86 2518.85 386.86 2471.88 434.01C2424.91 481.159 2424.91 557.604 2471.88 604.753C2518.85 651.903 2595.01 651.903 2641.98 604.753Z" stroke="#7592DB" stroke-opacity="0.5" stroke-miterlimit="10"/>
<path d="M2674.95 605.965C2705.55 546.782 2682.56 473.904 2623.6 443.187C2564.64 412.47 2492.04 435.546 2461.44 494.729C2430.84 553.912 2453.82 626.791 2512.78 657.508C2571.74 688.224 2644.35 665.148 2674.95 605.965Z" stroke="#7592DB" stroke-opacity="0.5" stroke-miterlimit="10"/>
<path d="M2666.73 665.393C2713.7 618.244 2713.7 541.799 2666.73 494.65C2619.76 447.5 2543.6 447.5 2496.63 494.65C2449.66 541.799 2449.66 618.244 2496.63 665.393C2543.6 712.543 2619.76 712.543 2666.73 665.393Z" stroke="#7592DB" stroke-opacity="0.5" stroke-miterlimit="10"/>
<path d="M2665.92 708.378C2720.65 670.591 2734.5 595.422 2696.86 540.482C2659.21 485.543 2584.33 471.639 2529.6 509.426C2474.86 547.212 2461.01 622.382 2498.66 677.321C2536.3 732.26 2611.19 746.165 2665.92 708.378Z" stroke="#7592DB" stroke-opacity="0.5" stroke-miterlimit="10"/>
<path d="M2734.77 656.725C2746.03 591.011 2702.09 528.575 2636.62 517.272C2571.16 505.968 2508.96 550.077 2497.7 615.791C2486.44 681.506 2530.38 743.941 2595.84 755.245C2661.31 766.548 2723.51 722.44 2734.77 656.725Z" stroke="#7592DB" stroke-opacity="0.5" stroke-miterlimit="10"/>
<path d="M2666.19 779.199C2730.63 763.012 2769.79 697.451 2753.67 632.767C2737.54 568.082 2672.23 528.767 2607.79 544.955C2543.35 561.143 2504.18 626.703 2520.31 691.388C2536.43 756.072 2601.75 795.387 2666.19 779.199Z" stroke="#7592DB" stroke-opacity="0.5" stroke-miterlimit="10"/>
<path d="M2708.61 797.219C2769.38 770.29 2796.89 699.009 2770.07 638.009C2743.24 577.01 2672.23 549.39 2611.46 576.32C2550.69 603.249 2523.17 674.53 2550 735.53C2576.83 796.529 2647.84 824.149 2708.61 797.219Z" stroke="#7592DB" stroke-opacity="0.5" stroke-miterlimit="10"/>
<path d="M2710.21 827.204C2775.22 813.477 2816.83 749.453 2803.15 684.201C2789.48 618.95 2725.69 577.181 2660.69 590.908C2595.68 604.635 2554.07 668.659 2567.75 733.911C2581.42 799.162 2645.21 840.931 2710.21 827.204Z" stroke="#7592DB" stroke-opacity="0.5" stroke-miterlimit="10"/>
<path d="M2781.79 828.84C2836.29 790.718 2849.68 715.465 2811.71 660.758C2773.73 606.05 2698.76 592.605 2644.26 630.727C2589.76 668.849 2576.36 744.101 2614.34 798.809C2652.32 853.516 2727.29 866.961 2781.79 828.84Z" stroke="#7592DB" stroke-opacity="0.5" stroke-miterlimit="10"/>
<path d="M2768.09 866.16C2833.04 852.149 2874.37 787.943 2860.41 722.752C2846.45 657.561 2782.49 616.072 2717.54 630.084C2652.6 644.095 2611.26 708.301 2625.22 773.492C2639.18 838.683 2703.15 880.172 2768.09 866.16Z" stroke="#7592DB" stroke-opacity="0.5" stroke-miterlimit="10"/>
<path d="M747.73 825.026L658.735 888.255C659.342 977.667 617.868 1065.94 539.645 1121.53C412.502 1211.87 236.467 1181.66 146.469 1054.04C123.211 1021.07 108.005 984.821 100.375 947.615L0.00229929 889.448C-0.261701 965.397 22.2047 1042.17 69.2495 1108.89C189.449 1279.32 424.514 1319.68 594.293 1199.02C717 1111.84 771.991 964.39 747.703 825L747.73 825.026Z" fill="#0066BD" fill-opacity="0.3"/>
</svg>
