<svg width="50" height="50" viewBox="0 0 50 50" fill="none" xmlns="http://www.w3.org/2000/svg">
<path d="M6.25 0C4.5924 0 3.00269 0.65848 1.83058 1.83058C0.65848 3.00269 0 4.5924 0 6.25L0 43.75C0 45.4076 0.65848 46.9973 1.83058 48.1694C3.00269 49.3415 4.5924 50 6.25 50H43.75C45.4076 50 46.9973 49.3415 48.1694 48.1694C49.3415 46.9973 50 45.4076 50 43.75V6.25C50 4.5924 49.3415 3.00269 48.1694 1.83058C46.9973 0.65848 45.4076 0 43.75 0L6.25 0ZM26.5625 14.0625V32.1656L33.2687 25.4562C33.414 25.311 33.5865 25.1957 33.7763 25.1171C33.9661 25.0385 34.1696 24.998 34.375 24.998C34.5804 24.998 34.7839 25.0385 34.9737 25.1171C35.1635 25.1957 35.336 25.311 35.4813 25.4562C35.6265 25.6015 35.7418 25.774 35.8204 25.9638C35.899 26.1536 35.9395 26.357 35.9395 26.5625C35.9395 26.768 35.899 26.9714 35.8204 27.1612C35.7418 27.351 35.6265 27.5235 35.4813 27.6688L26.1063 37.0438C25.9611 37.1893 25.7887 37.3047 25.5989 37.3835C25.409 37.4622 25.2055 37.5028 25 37.5028C24.7945 37.5028 24.591 37.4622 24.4011 37.3835C24.2113 37.3047 24.0389 37.1893 23.8937 37.0438L14.5187 27.6688C14.3735 27.5235 14.2582 27.351 14.1796 27.1612C14.101 26.9714 14.0605 26.768 14.0605 26.5625C14.0605 26.357 14.101 26.1536 14.1796 25.9638C14.2582 25.774 14.3735 25.6015 14.5187 25.4562C14.8121 25.1629 15.2101 24.998 15.625 24.998C15.8305 24.998 16.0339 25.0385 16.2237 25.1171C16.4135 25.1957 16.586 25.311 16.7313 25.4562L23.4375 32.1656V14.0625C23.4375 13.6481 23.6021 13.2507 23.8951 12.9576C24.1882 12.6646 24.5856 12.5 25 12.5C25.4144 12.5 25.8118 12.6646 26.1049 12.9576C26.3979 13.2507 26.5625 13.6481 26.5625 14.0625Z" fill="white"/>
</svg>
