<svg width="12" height="20" viewBox="0 0 12 20" fill="none" xmlns="http://www.w3.org/2000/svg">
<path fill-rule="evenodd" clip-rule="evenodd" d="M0.969364 0.46912C1.03903 0.399275 1.1218 0.343861 1.21291 0.306051C1.30403 0.268242 1.40171 0.248779 1.50036 0.248779C1.59901 0.248779 1.6967 0.268242 1.78781 0.306051C1.87893 0.343861 1.9617 0.399275 2.03136 0.46912L11.0314 9.46912C11.1012 9.53879 11.1566 9.62155 11.1944 9.71267C11.2322 9.80379 11.2517 9.90147 11.2517 10.0001C11.2517 10.0988 11.2322 10.1965 11.1944 10.2876C11.1566 10.3787 11.1012 10.4615 11.0314 10.5311L2.03136 19.5311C1.89053 19.6719 1.69953 19.7511 1.50036 19.7511C1.3012 19.7511 1.11019 19.6719 0.969364 19.5311C0.828534 19.3903 0.749416 19.1993 0.749416 19.0001C0.749416 18.801 0.828534 18.6099 0.969364 18.4691L9.43986 10.0001L0.969364 1.53112C0.899519 1.46145 0.844104 1.37869 0.806295 1.28757C0.768485 1.19645 0.749023 1.09877 0.749023 1.00012C0.749023 0.901469 0.768485 0.803787 0.806295 0.71267C0.844104 0.621552 0.899519 0.538789 0.969364 0.46912V0.46912Z" fill="#222222"/>
</svg>
