<svg width="12" height="20" viewBox="0 0 12 20" fill="none" xmlns="http://www.w3.org/2000/svg">
<path fill-rule="evenodd" clip-rule="evenodd" d="M11.0314 0.46912C11.1012 0.538789 11.1566 0.621552 11.1944 0.71267C11.2322 0.803787 11.2517 0.901469 11.2517 1.00012C11.2517 1.09877 11.2322 1.19645 11.1944 1.28757C11.1566 1.37869 11.1012 1.46145 11.0314 1.53112L2.56086 10.0001L11.0314 18.4691C11.1722 18.6099 11.2513 18.801 11.2513 19.0001C11.2513 19.1993 11.1722 19.3903 11.0314 19.5311C10.8905 19.6719 10.6995 19.7511 10.5004 19.7511C10.3012 19.7511 10.1102 19.6719 9.96936 19.5311L0.969364 10.5311C0.899519 10.4615 0.844104 10.3787 0.806295 10.2876C0.768485 10.1965 0.749023 10.0988 0.749023 10.0001C0.749023 9.90147 0.768485 9.80379 0.806295 9.71267C0.844104 9.62155 0.899519 9.53879 0.969364 9.46912L9.96936 0.46912C10.039 0.399275 10.1218 0.343861 10.2129 0.306051C10.304 0.268242 10.4017 0.248779 10.5004 0.248779C10.599 0.248779 10.6967 0.268242 10.7878 0.306051C10.8789 0.343861 10.9617 0.399275 11.0314 0.46912V0.46912Z" fill="#222222"/>
</svg>
