<svg width="55" height="55" viewBox="0 0 55 55" fill="none" xmlns="http://www.w3.org/2000/svg">
<path fill-rule="evenodd" clip-rule="evenodd" d="M3.4375 27.5C3.4375 33.8818 5.97265 40.0022 10.4852 44.5148C14.9978 49.0274 21.1182 51.5625 27.5 51.5625C33.8818 51.5625 40.0022 49.0274 44.5148 44.5148C49.0274 40.0022 51.5625 33.8818 51.5625 27.5C51.5625 21.1182 49.0274 14.9978 44.5148 10.4852C40.0022 5.97265 33.8818 3.4375 27.5 3.4375C21.1182 3.4375 14.9978 5.97265 10.4852 10.4852C5.97265 14.9978 3.4375 21.1182 3.4375 27.5ZM55 27.5C55 34.7935 52.1027 41.7882 46.9454 46.9454C41.7882 52.1027 34.7935 55 27.5 55C20.2065 55 13.2118 52.1027 8.05456 46.9454C2.89731 41.7882 0 34.7935 0 27.5C0 20.2065 2.89731 13.2118 8.05456 8.05456C13.2118 2.89731 20.2065 0 27.5 0C34.7935 0 41.7882 2.89731 46.9454 8.05456C52.1027 13.2118 55 20.2065 55 27.5ZM39.5312 25.7812C39.9871 25.7812 40.4243 25.9623 40.7466 26.2847C41.0689 26.607 41.25 27.0442 41.25 27.5C41.25 27.9558 41.0689 28.393 40.7466 28.7153C40.4243 29.0377 39.9871 29.2188 39.5312 29.2188H19.6178L26.9981 36.5956C27.1579 36.7554 27.2847 36.9451 27.3712 37.1539C27.4577 37.3627 27.5022 37.5865 27.5022 37.8125C27.5022 38.0385 27.4577 38.2623 27.3712 38.4711C27.2847 38.6799 27.1579 38.8696 26.9981 39.0294C26.8383 39.1892 26.6486 39.3159 26.4398 39.4024C26.231 39.4889 26.0072 39.5334 25.7812 39.5334C25.5553 39.5334 25.3315 39.4889 25.1227 39.4024C24.9139 39.3159 24.7242 39.1892 24.5644 39.0294L14.2519 28.7169C14.0918 28.5572 13.9648 28.3675 13.8782 28.1587C13.7915 27.9499 13.7469 27.7261 13.7469 27.5C13.7469 27.2739 13.7915 27.0501 13.8782 26.8413C13.9648 26.6324 14.0918 26.4428 14.2519 26.2831L24.5644 15.9706C24.8871 15.6479 25.3248 15.4666 25.7812 15.4666C26.2377 15.4666 26.6754 15.6479 26.9981 15.9706C27.3209 16.2934 27.5022 16.7311 27.5022 17.1875C27.5022 17.6439 27.3209 18.0816 26.9981 18.4044L19.6178 25.7812H39.5312Z" fill="#737373"/>
</svg>
