<svg width="50" height="38" viewBox="0 0 50 38" fill="none" xmlns="http://www.w3.org/2000/svg">
<path d="M18.75 19C21.2364 19 23.621 18.0123 25.3791 16.2541C27.1373 14.496 28.125 12.1114 28.125 9.625C28.125 7.1386 27.1373 4.75403 25.3791 2.99587C23.621 1.23772 21.2364 0.25 18.75 0.25C16.2636 0.25 13.879 1.23772 12.1209 2.99587C10.3627 4.75403 9.375 7.1386 9.375 9.625C9.375 12.1114 10.3627 14.496 12.1209 16.2541C13.879 18.0123 16.2636 19 18.75 19ZM25 9.625C25 11.2826 24.3415 12.8723 23.1694 14.0444C21.9973 15.2165 20.4076 15.875 18.75 15.875C17.0924 15.875 15.5027 15.2165 14.3306 14.0444C13.1585 12.8723 12.5 11.2826 12.5 9.625C12.5 7.9674 13.1585 6.37768 14.3306 5.20558C15.5027 4.03348 17.0924 3.375 18.75 3.375C20.4076 3.375 21.9973 4.03348 23.1694 5.20558C24.3415 6.37768 25 7.9674 25 9.625ZM37.5 34.625C37.5 37.75 34.375 37.75 34.375 37.75H3.125C3.125 37.75 0 37.75 0 34.625C0 31.5 3.125 22.125 18.75 22.125C34.375 22.125 37.5 31.5 37.5 34.625ZM34.375 34.6125C34.3719 33.8438 33.8938 31.5313 31.775 29.4125C29.7375 27.375 25.9031 25.25 18.75 25.25C11.5938 25.25 7.7625 27.375 5.725 29.4125C3.60625 31.5313 3.13125 33.8438 3.125 34.6125H34.375Z" fill="#222222"/>
<path fill-rule="evenodd" clip-rule="evenodd" d="M49.5438 10.0812C49.6893 10.2264 49.8047 10.3988 49.8835 10.5886C49.9622 10.7785 50.0028 10.982 50.0028 11.1875C50.0028 11.393 49.9622 11.5965 49.8835 11.7864C49.8047 11.9762 49.6893 12.1486 49.5438 12.2938L40.1688 21.6688C40.0236 21.8143 39.8512 21.9297 39.6614 22.0085C39.4715 22.0872 39.268 22.1278 39.0625 22.1278C38.857 22.1278 38.6535 22.0872 38.4636 22.0085C38.2738 21.9297 38.1014 21.8143 37.9562 21.6688L33.2687 16.9813C32.9754 16.6879 32.8105 16.2899 32.8105 15.875C32.8105 15.4601 32.9754 15.0621 33.2687 14.7687C33.5621 14.4754 33.9601 14.3105 34.375 14.3105C34.7899 14.3105 35.1879 14.4754 35.4813 14.7687L39.0625 18.3531L47.3312 10.0812C47.4764 9.93574 47.6488 9.82029 47.8386 9.74152C48.0285 9.66275 48.232 9.62221 48.4375 9.62221C48.643 9.62221 48.8465 9.66275 49.0364 9.74152C49.2262 9.82029 49.3986 9.93574 49.5438 10.0812Z" fill="#222222"/>
</svg>
