<svg width="26" height="26" viewBox="0 0 26 26" fill="none" xmlns="http://www.w3.org/2000/svg">
<path fill-rule="evenodd" clip-rule="evenodd" d="M10.5625 19.5C11.7362 19.5 12.8984 19.2688 13.9827 18.8197C15.0671 18.3705 16.0523 17.7122 16.8823 16.8823C17.7122 16.0523 18.3705 15.0671 18.8197 13.9827C19.2688 12.8984 19.5 11.7362 19.5 10.5625C19.5 9.38881 19.2688 8.22661 18.8197 7.14227C18.3705 6.05792 17.7122 5.07266 16.8823 4.24273C16.0523 3.41281 15.0671 2.75448 13.9827 2.30533C12.8984 1.85618 11.7362 1.625 10.5625 1.625C8.19213 1.625 5.91884 2.56663 4.24273 4.24273C2.56663 5.91884 1.625 8.19213 1.625 10.5625C1.625 12.9329 2.56663 15.2062 4.24273 16.8823C5.91884 18.5584 8.19213 19.5 10.5625 19.5ZM21.125 10.5625C21.125 13.3638 20.0122 16.0505 18.0313 18.0313C16.0505 20.0122 13.3638 21.125 10.5625 21.125C7.76115 21.125 5.07454 20.0122 3.09368 18.0313C1.11283 16.0505 0 13.3638 0 10.5625C0 7.76115 1.11283 5.07454 3.09368 3.09368C5.07454 1.11283 7.76115 0 10.5625 0C13.3638 0 16.0505 1.11283 18.0313 3.09368C20.0122 5.07454 21.125 7.76115 21.125 10.5625Z" fill="#737373"/>
<path d="M16.809 19.0807C16.8577 19.1458 16.9097 19.2075 16.9683 19.2676L23.2245 25.5239C23.5292 25.8288 23.9425 26.0002 24.3736 26.0003C24.8047 26.0005 25.2181 25.8294 25.5231 25.5247C25.828 25.22 25.9994 24.8066 25.9995 24.3756C25.9997 23.9445 25.8286 23.531 25.5239 23.2261L19.2676 16.9699C19.2095 16.9111 19.1471 16.8567 19.0807 16.8074C18.4433 17.6766 17.6773 18.4437 16.809 19.0824V19.0807Z" fill="#737373"/>
<path fill-rule="evenodd" clip-rule="evenodd" d="M33.3125 4.0625C33.528 4.0625 33.7347 4.1481 33.887 4.30048C34.0394 4.45285 34.125 4.65951 34.125 4.875V8.9375H38.1875C38.403 8.9375 38.6097 9.0231 38.762 9.17548C38.9144 9.32785 39 9.53451 39 9.75C39 9.96549 38.9144 10.1722 38.762 10.3245C38.6097 10.4769 38.403 10.5625 38.1875 10.5625H34.125V14.625C34.125 14.8405 34.0394 15.0472 33.887 15.1995C33.7347 15.3519 33.528 15.4375 33.3125 15.4375C33.097 15.4375 32.8903 15.3519 32.738 15.1995C32.5856 15.0472 32.5 14.8405 32.5 14.625V10.5625H28.4375C28.222 10.5625 28.0153 10.4769 27.863 10.3245C27.7106 10.1722 27.625 9.96549 27.625 9.75C27.625 9.53451 27.7106 9.32785 27.863 9.17548C28.0153 9.0231 28.222 8.9375 28.4375 8.9375H32.5V4.875C32.5 4.65951 32.5856 4.45285 32.738 4.30048C32.8903 4.1481 33.097 4.0625 33.3125 4.0625Z" fill="#737373"/>
</svg>
