<svg width="50" height="50" viewBox="0 0 50 50" fill="none" xmlns="http://www.w3.org/2000/svg">
<path d="M25.7261 7.96948H13.1277C12.3549 7.96948 11.7451 8.59637 11.7451 9.35211C11.7451 10.1165 12.3549 10.7347 13.1277 10.7347H25.726C26.4989 10.7347 27.1086 10.1078 27.1086 9.35211C27.1087 8.57923 26.4819 7.96948 25.7261 7.96948Z" fill="#222222"/>
<path d="M30.7671 16.2739H13.1277C12.3549 16.2739 11.7451 16.9007 11.7451 17.6565C11.7451 18.4207 12.3549 19.0391 13.1277 19.0391H30.7671C31.54 19.0391 32.1497 18.4122 32.1497 17.6565C32.1497 16.8836 31.5228 16.2739 30.7671 16.2739Z" fill="#222222"/>
<path d="M21.5181 24.5697H13.1277C12.3549 24.5697 11.7451 25.1966 11.7451 25.9524C11.7451 26.7252 12.372 27.335 13.1277 27.335H21.5181C22.2909 27.335 22.9007 26.7081 22.9007 25.9524C22.9007 25.188 22.2824 24.5697 21.5181 24.5697Z" fill="#222222"/>
<path d="M41.7936 25.9953V3.65835C41.7936 1.64884 40.1534 0 38.1352 0H10.1476C8.1381 0 6.48926 1.6402 6.48926 3.65835V34.2652C6.48926 35.227 6.8757 36.1631 7.55412 36.8416L13.2392 42.5181C13.9177 43.1965 14.8623 43.5829 15.8156 43.5829H28.5513V48.6068C28.5513 49.1478 28.8691 49.6545 29.3757 49.8778C29.8653 50.1011 30.4664 50.0151 30.8614 49.646L33.5838 47.207L36.3061 49.646C36.7785 50.0066 37.4139 50.0066 37.7918 49.8778C38.3156 49.7147 38.6163 49.1565 38.6163 48.6068V40.0791C41.5533 38.3443 43.5112 35.184 43.5112 31.56C43.5112 29.4991 42.8757 27.5839 41.7936 25.9953ZM13.4968 38.8597L11.2382 36.6011H13.4968V38.8597ZM28.5685 40.8263H16.2793V40.8177V35.2012C16.2793 34.4284 15.6525 33.8186 14.8967 33.8186H9.28028V3.65835C9.28028 3.17746 9.66671 2.77375 10.1649 2.77375H38.1439C38.6248 2.77375 39.0285 3.16019 39.0285 3.65835V23.2643C37.4654 22.2337 35.6106 21.6412 33.6096 21.6412C28.1391 21.6412 23.6906 26.0897 23.6906 31.5602C23.6906 35.1842 25.6486 38.353 28.5685 40.0792V40.8263ZM35.8766 45.4895H35.868L34.5369 44.2871C34.0131 43.8147 33.2143 43.8147 32.6819 44.2871L31.3508 45.4895V41.1956C32.0808 41.3674 32.8365 41.4618 33.6094 41.4618C34.3909 41.4618 35.1467 41.3587 35.8766 41.1956V45.4895ZM33.5923 38.6966C29.6591 38.6966 26.4559 35.4934 26.4559 31.5602C26.4559 27.627 29.6591 24.4237 33.5923 24.4237C37.5255 24.4237 40.7287 27.627 40.7287 31.5602C40.7287 35.4934 37.5341 38.6966 33.5923 38.6966Z" fill="#222222"/>
</svg>
