<svg width="8" height="10" viewBox="0 0 8 10" fill="none" xmlns="http://www.w3.org/2000/svg">
<path d="M1.5 0.5C1.89782 0.5 2.27936 0.658035 2.56066 0.93934C2.84196 1.22064 3 1.60218 3 2V8C3 8.39782 2.84196 8.77936 2.56066 9.06066C2.27936 9.34196 1.89782 9.5 1.5 9.5C1.10218 9.5 0.720644 9.34196 0.43934 9.06066C0.158035 8.77936 8.38353e-09 8.39782 0 8V2C0 1.60218 0.158035 1.22064 0.43934 0.93934C0.720644 0.658035 1.10218 0.5 1.5 0.5V0.5ZM6.5 0.5C6.89782 0.5 7.27936 0.658035 7.56066 0.93934C7.84196 1.22064 8 1.60218 8 2V8C8 8.39782 7.84196 8.77936 7.56066 9.06066C7.27936 9.34196 6.89782 9.5 6.5 9.5C6.10218 9.5 5.72064 9.34196 5.43934 9.06066C5.15804 8.77936 5 8.39782 5 8V2C5 1.60218 5.15804 1.22064 5.43934 0.93934C5.72064 0.658035 6.10218 0.5 6.5 0.5Z" fill="#222222"/>
</svg>
