<svg width="8" height="12" viewBox="0 0 8 12" fill="none" xmlns="http://www.w3.org/2000/svg">
<path d="M0.859534 6.75298L6.34153 11.549C6.98753 12.115 7.99953 11.655 7.99953 10.796V1.20398C7.9997 1.01174 7.94445 0.823521 7.84039 0.661871C7.73634 0.500221 7.5879 0.37199 7.41284 0.292534C7.23779 0.213078 7.04354 0.185765 6.85336 0.213867C6.66318 0.241969 6.48513 0.324294 6.34053 0.450983L0.860534 5.24698C0.753125 5.34084 0.667038 5.4566 0.608055 5.58647C0.549071 5.71635 0.518555 5.85734 0.518555 5.99998C0.518555 6.14262 0.549071 6.28362 0.608055 6.41349C0.667038 6.54337 0.753125 6.65912 0.860534 6.75298H0.859534Z" fill="#222222"/>
</svg>
