<svg width="1980" height="1080" viewBox="0 0 1980 1080" fill="none" xmlns="http://www.w3.org/2000/svg">
<path d="M1358.38 994.469C1405.35 947.319 1405.35 870.874 1358.38 823.725C1311.41 776.575 1235.25 776.575 1188.28 823.725C1141.31 870.874 1141.31 947.319 1188.28 994.469C1235.25 1041.62 1311.41 1041.62 1358.38 994.469Z" stroke="#C6C6D0" stroke-width="0.9" stroke-miterlimit="10"/>
<path d="M1292.56 996.321C1355.38 974.645 1388.8 905.955 1367.2 842.896C1345.61 779.838 1277.18 746.291 1214.36 767.967C1151.54 789.643 1118.12 858.333 1139.71 921.391C1161.31 984.449 1229.74 1018 1292.56 996.321Z" stroke="#C6C6D0" stroke-width="0.9" stroke-miterlimit="10"/>
<path d="M1352.93 855.28C1353.35 788.602 1299.84 734.209 1233.41 733.79C1166.99 733.371 1112.8 787.085 1112.38 853.763C1111.96 920.441 1165.48 974.834 1231.9 975.253C1298.33 975.672 1352.52 921.958 1352.93 855.28Z" stroke="#C6C6D0" stroke-width="0.9" stroke-miterlimit="10"/>
<path d="M1294.88 913.927C1341.85 866.777 1341.85 790.332 1294.88 743.183C1247.91 696.033 1171.75 696.033 1124.78 743.183C1077.81 790.332 1077.81 866.777 1124.78 913.927C1171.75 961.076 1247.91 961.076 1294.88 913.927Z" stroke="#C6C6D0" stroke-width="0.9" stroke-miterlimit="10"/>
<path d="M1305.28 805.544C1305.69 738.866 1252.18 684.473 1185.76 684.054C1119.33 683.635 1065.14 737.349 1064.72 804.027C1064.31 870.705 1117.82 925.098 1184.24 925.517C1250.67 925.936 1304.86 872.223 1305.28 805.544Z" stroke="#C6C6D0" stroke-width="0.9" stroke-miterlimit="10"/>
<path d="M1279.03 784.369C1279.45 717.691 1225.94 663.298 1159.51 662.879C1093.08 662.46 1038.9 716.174 1038.48 782.852C1038.06 849.53 1091.57 903.923 1158 904.342C1224.43 904.761 1278.61 851.047 1279.03 784.369Z" stroke="#C6C6D0" stroke-width="0.9" stroke-miterlimit="10"/>
<path d="M1216.24 850.439C1263.21 803.29 1263.21 726.845 1216.24 679.696C1169.27 632.546 1093.11 632.546 1046.14 679.696C999.166 726.845 999.166 803.29 1046.14 850.439C1093.11 897.589 1169.27 897.589 1216.24 850.439Z" stroke="#C6C6D0" stroke-width="0.9" stroke-miterlimit="10"/>
<path d="M1102.3 869.628C1168.73 869.628 1222.58 815.574 1222.58 748.894C1222.58 682.215 1168.73 628.16 1102.3 628.16C1035.87 628.16 982.023 682.215 982.023 748.894C982.023 815.574 1035.87 869.628 1102.3 869.628Z" stroke="#C6C6D0" stroke-width="0.9" stroke-miterlimit="10"/>
<path d="M1192.61 736.282C1193.17 669.605 1139.77 615.1 1073.35 614.541C1006.92 613.983 952.621 667.582 952.064 734.26C951.508 800.937 1004.91 855.442 1071.33 856.001C1137.76 856.559 1192.06 802.96 1192.61 736.282Z" stroke="#C6C6D0" stroke-width="0.9" stroke-miterlimit="10"/>
<path d="M1062.81 843.109C1128.18 831.244 1171.59 768.434 1159.77 702.818C1147.95 637.203 1085.38 593.63 1020.01 605.495C954.639 617.36 911.231 680.171 923.051 745.786C934.872 811.402 997.445 854.975 1062.81 843.109Z" stroke="#C6C6D0" stroke-width="0.9" stroke-miterlimit="10"/>
<path d="M1077.88 815.456C1132.7 777.794 1146.72 702.656 1109.2 647.631C1071.68 592.606 996.827 578.531 942.01 616.193C887.193 653.856 873.171 728.993 910.691 784.018C948.211 839.043 1023.07 853.118 1077.88 815.456Z" stroke="#C6C6D0" stroke-width="0.9" stroke-miterlimit="10"/>
<path d="M1016.99 823.972C1079.81 802.297 1113.23 733.606 1091.64 670.548C1070.04 607.49 1001.61 573.943 938.793 595.619C875.973 617.295 842.552 685.985 864.146 749.043C885.74 812.101 954.171 845.648 1016.99 823.972Z" stroke="#C6C6D0" stroke-width="0.9" stroke-miterlimit="10"/>
<path d="M984.565 820.71C1047.38 799.034 1080.81 730.344 1059.21 667.286C1037.62 604.227 969.186 570.68 906.366 592.356C843.546 614.032 810.125 682.722 831.719 745.78C853.313 808.838 921.744 842.385 984.565 820.71Z" stroke="#C6C6D0" stroke-width="0.9" stroke-miterlimit="10"/>
<path d="M951.939 820.076C1014.76 798.401 1048.18 729.71 1026.59 666.652C1004.99 603.594 936.56 570.047 873.74 591.723C810.92 613.399 777.499 682.089 799.093 745.147C820.687 808.205 889.118 841.752 951.939 820.076Z" stroke="#C6C6D0" stroke-width="0.9" stroke-miterlimit="10"/>
<path d="M1000.5 708.91C1001.06 642.233 947.659 587.727 881.233 587.169C814.807 586.61 760.507 640.21 759.951 706.887C759.394 773.564 812.792 828.07 879.218 828.628C945.643 829.187 999.943 775.587 1000.5 708.91Z" stroke="#C6C6D0" stroke-width="0.9" stroke-miterlimit="10"/>
<path d="M900.372 821.242C960.098 792.054 984.942 719.791 955.863 659.84C926.785 599.888 854.795 574.95 795.07 604.138C735.345 633.327 710.5 705.589 739.579 765.541C768.657 825.492 840.647 850.431 900.372 821.242Z" stroke="#C6C6D0" stroke-width="0.9" stroke-miterlimit="10"/>
<path d="M900.676 805.388C947.648 758.238 947.648 681.794 900.676 634.644C853.705 587.495 777.549 587.495 730.577 634.644C683.605 681.794 683.605 758.238 730.577 805.388C777.549 852.538 853.705 852.538 900.676 805.388Z" stroke="#C6C6D0" stroke-width="0.9" stroke-miterlimit="10"/>
<path d="M869.044 815.536C916.015 768.387 916.015 691.942 869.044 644.793C822.072 597.643 745.916 597.643 698.944 644.793C651.973 691.942 651.973 768.387 698.944 815.536C745.916 862.686 822.072 862.686 869.044 815.536Z" stroke="#C6C6D0" stroke-width="0.9" stroke-miterlimit="10"/>
<path d="M838.081 828.418C885.052 781.268 885.052 704.824 838.081 657.674C791.109 610.524 714.953 610.524 667.981 657.674C621.01 704.824 621.01 781.268 667.981 828.418C714.953 875.567 791.109 875.567 838.081 828.418Z" stroke="#C6C6D0" stroke-width="0.9" stroke-miterlimit="10"/>
<path d="M843.12 759.32C843.538 692.642 790.027 638.249 723.6 637.83C657.173 637.411 602.986 691.124 602.568 757.803C602.151 824.481 655.662 878.874 722.089 879.293C788.515 879.712 842.703 825.998 843.12 759.32Z" stroke="#C6C6D0" stroke-width="0.9" stroke-miterlimit="10"/>
<path d="M732.944 891.346C795.765 869.67 829.185 800.98 807.591 737.922C785.997 674.864 717.566 641.317 654.746 662.992C591.926 684.668 558.505 753.358 580.099 816.417C601.693 879.475 670.124 913.022 732.944 891.346Z" stroke="#C6C6D0" stroke-width="0.9" stroke-miterlimit="10"/>
<path d="M786.35 799.132C786.674 732.453 733.088 678.135 666.661 677.809C600.233 677.484 546.12 731.273 545.796 797.952C545.471 864.631 599.058 918.949 665.485 919.275C731.912 919.6 786.025 865.811 786.35 799.132Z" stroke="#C6C6D0" stroke-width="0.9" stroke-miterlimit="10"/>
<path d="M145.844 342C172.35 342.928 198.987 350.612 223.17 365.664C297.09 411.668 319.873 509.136 274.016 583.362C228.186 657.562 131.086 680.431 57.14 634.401C35.0168 620.647 17.4872 602.283 5 581.295" stroke="#C6C6D0" stroke-width="10.77" stroke-miterlimit="10"/>
<path d="M1917.8 190.073C1951.94 190.073 1979.6 162.298 1979.6 128.037C1979.6 93.7748 1951.94 66 1917.8 66C1883.67 66 1856 93.7748 1856 128.037C1856 162.298 1883.67 190.073 1917.8 190.073Z" fill="#3860AF"/>
<path d="M303.023 64.289C320.709 64.289 335.046 49.8974 335.046 32.1445C335.046 14.3916 320.709 0 303.023 0C285.337 0 271 14.3916 271 32.1445C271 49.8974 285.337 64.289 303.023 64.289Z" fill="#7592DB" fill-opacity="0.3"/>
<path opacity="0.5" d="M1794.32 586.959C1817.69 586.959 1836.64 567.94 1836.64 544.48C1836.64 521.019 1817.69 502 1794.32 502C1770.95 502 1752 521.019 1752 544.48C1752 567.94 1770.95 586.959 1794.32 586.959Z" fill="#C6C6D0"/>
</svg>
