<svg width="2429" height="736" viewBox="0 0 2429 736" fill="none" xmlns="http://www.w3.org/2000/svg">
<path d="M2155.13 278.064C2155.13 280.317 2153.31 282.145 2151.07 282.145C2148.82 282.145 2147 280.317 2147 278.064C2147 275.812 2148.82 273.983 2151.07 273.983C2153.31 273.983 2155.13 275.812 2155.13 278.064Z" fill="#0066BD" fill-opacity="0.3"/>
<path d="M2223.37 278.064C2223.37 280.317 2221.55 282.145 2219.31 282.145C2217.06 282.145 2215.24 280.317 2215.24 278.064C2215.24 275.812 2217.06 273.983 2219.31 273.983C2221.55 273.983 2223.37 275.812 2223.37 278.064Z" fill="#0066BD" fill-opacity="0.3"/>
<path d="M2291.62 278.064C2291.62 280.317 2289.8 282.145 2287.55 282.145C2285.31 282.145 2283.49 280.317 2283.49 278.064C2283.49 275.812 2285.31 273.983 2287.55 273.983C2289.8 273.983 2291.62 275.812 2291.62 278.064Z" fill="#0066BD" fill-opacity="0.3"/>
<path d="M2359.83 278.064C2359.83 280.317 2358.01 282.145 2355.77 282.145C2353.52 282.145 2351.7 280.317 2351.7 278.064C2351.7 275.812 2353.52 273.983 2355.77 273.983C2358.01 273.983 2359.83 275.812 2359.83 278.064Z" fill="#0066BD" fill-opacity="0.3"/>
<path d="M2428.08 278.064C2428.08 280.317 2426.26 282.145 2424.02 282.145C2421.77 282.145 2419.95 280.317 2419.95 278.064C2419.95 275.812 2421.77 273.983 2424.02 273.983C2426.26 273.983 2428.08 275.812 2428.08 278.064Z" fill="#0066BD" fill-opacity="0.3"/>
<path d="M2155.13 209.562C2155.13 211.815 2153.31 213.643 2151.07 213.643C2148.82 213.643 2147 211.815 2147 209.562C2147 207.31 2148.82 205.481 2151.07 205.481C2153.31 205.481 2155.13 207.31 2155.13 209.562Z" fill="#0066BD" fill-opacity="0.3"/>
<path d="M2223.37 209.562C2223.37 211.815 2221.55 213.643 2219.31 213.643C2217.06 213.643 2215.24 211.815 2215.24 209.562C2215.24 207.31 2217.06 205.481 2219.31 205.481C2221.55 205.481 2223.37 207.31 2223.37 209.562Z" fill="#0066BD" fill-opacity="0.3"/>
<path d="M2291.62 209.562C2291.62 211.815 2289.8 213.643 2287.55 213.643C2285.31 213.643 2283.49 211.815 2283.49 209.562C2283.49 207.31 2285.31 205.481 2287.55 205.481C2289.8 205.481 2291.62 207.31 2291.62 209.562Z" fill="#0066BD" fill-opacity="0.3"/>
<path d="M2359.83 209.562C2359.83 211.815 2358.01 213.643 2355.77 213.643C2353.52 213.643 2351.7 211.815 2351.7 209.562C2351.7 207.31 2353.52 205.481 2355.77 205.481C2358.01 205.481 2359.83 207.31 2359.83 209.562Z" fill="#0066BD" fill-opacity="0.3"/>
<path d="M2428.08 209.562C2428.08 211.815 2426.26 213.643 2424.02 213.643C2421.77 213.643 2419.95 211.815 2419.95 209.562C2419.95 207.31 2421.77 205.481 2424.02 205.481C2426.26 205.481 2428.08 207.31 2428.08 209.562Z" fill="#0066BD" fill-opacity="0.3"/>
<path d="M2155.13 141.086C2155.13 143.339 2153.31 145.167 2151.07 145.167C2148.82 145.167 2147 143.339 2147 141.086C2147 138.834 2148.82 137.005 2151.07 137.005C2153.31 137.005 2155.13 138.834 2155.13 141.086Z" fill="#0066BD" fill-opacity="0.3"/>
<path d="M2223.37 141.086C2223.37 143.339 2221.55 145.167 2219.31 145.167C2217.06 145.167 2215.24 143.339 2215.24 141.086C2215.24 138.834 2217.06 137.005 2219.31 137.005C2221.55 137.005 2223.37 138.834 2223.37 141.086Z" fill="#0066BD" fill-opacity="0.3"/>
<path d="M2291.62 141.086C2291.62 143.339 2289.8 145.167 2287.55 145.167C2285.31 145.167 2283.49 143.339 2283.49 141.086C2283.49 138.834 2285.31 137.005 2287.55 137.005C2289.8 137.005 2291.62 138.834 2291.62 141.086Z" fill="#0066BD" fill-opacity="0.3"/>
<path d="M2359.83 141.086C2359.83 143.339 2358.01 145.167 2355.77 145.167C2353.52 145.167 2351.7 143.339 2351.7 141.086C2351.7 138.834 2353.52 137.005 2355.77 137.005C2358.01 137.005 2359.83 138.834 2359.83 141.086Z" fill="#0066BD" fill-opacity="0.3"/>
<path d="M2428.08 141.086C2428.08 143.339 2426.26 145.167 2424.02 145.167C2421.77 145.167 2419.95 143.339 2419.95 141.086C2419.95 138.834 2421.77 137.005 2424.02 137.005C2426.26 137.005 2428.08 138.834 2428.08 141.086Z" fill="#0066BD" fill-opacity="0.3"/>
<path d="M2155.13 72.5838C2155.13 74.8363 2153.31 76.6649 2151.07 76.6649C2148.82 76.6649 2147 74.8363 2147 72.5838C2147 70.3313 2148.82 68.5028 2151.07 68.5028C2153.31 68.5028 2155.13 70.3313 2155.13 72.5838Z" fill="#0066BD" fill-opacity="0.3"/>
<path d="M2223.37 72.5838C2223.37 74.8363 2221.55 76.6649 2219.31 76.6649C2217.06 76.6649 2215.24 74.8363 2215.24 72.5838C2215.24 70.3313 2217.06 68.5028 2219.31 68.5028C2221.55 68.5028 2223.37 70.3313 2223.37 72.5838Z" fill="#0066BD" fill-opacity="0.3"/>
<path d="M2291.62 72.5838C2291.62 74.8363 2289.8 76.6649 2287.55 76.6649C2285.31 76.6649 2283.49 74.8363 2283.49 72.5838C2283.49 70.3313 2285.31 68.5028 2287.55 68.5028C2289.8 68.5028 2291.62 70.3313 2291.62 72.5838Z" fill="#0066BD" fill-opacity="0.3"/>
<path d="M2355.77 76.6649C2358.01 76.6649 2359.83 74.8377 2359.83 72.5838C2359.83 70.33 2358.01 68.5028 2355.77 68.5028C2353.52 68.5028 2351.7 70.33 2351.7 72.5838C2351.7 74.8377 2353.52 76.6649 2355.77 76.6649Z" fill="#0066BD" fill-opacity="0.3"/>
<path d="M2428.08 72.5838C2428.08 74.8363 2426.26 76.6649 2424.02 76.6649C2421.77 76.6649 2419.95 74.8363 2419.95 72.5838C2419.95 70.3313 2421.77 68.5028 2424.02 68.5028C2426.26 68.5028 2428.08 70.3313 2428.08 72.5838Z" fill="#0066BD" fill-opacity="0.3"/>
<path d="M2155.13 4.08094C2155.13 6.33344 2153.31 8.16196 2151.07 8.16196C2148.82 8.16196 2147 6.33344 2147 4.08094C2147 1.82844 2148.82 0 2151.07 0C2153.31 0 2155.13 1.82844 2155.13 4.08094Z" fill="#0066BD" fill-opacity="0.3"/>
<path d="M2223.37 4.08094C2223.37 6.33344 2221.55 8.16196 2219.31 8.16196C2217.06 8.16196 2215.24 6.33344 2215.24 4.08094C2215.24 1.82844 2217.06 0 2219.31 0C2221.55 0 2223.37 1.82844 2223.37 4.08094Z" fill="#0066BD" fill-opacity="0.3"/>
<path d="M2291.62 4.08094C2291.62 6.33344 2289.8 8.16196 2287.55 8.16196C2285.31 8.16196 2283.49 6.33344 2283.49 4.08094C2283.49 1.82844 2285.31 0 2287.55 0C2289.8 0 2291.62 1.82844 2291.62 4.08094Z" fill="#0066BD" fill-opacity="0.3"/>
<path d="M2359.83 4.08094C2359.83 6.33344 2358.01 8.16196 2355.77 8.16196C2353.52 8.16196 2351.7 6.33344 2351.7 4.08094C2351.7 1.82844 2353.52 0 2355.77 0C2358.01 0 2359.83 1.82844 2359.83 4.08094Z" fill="#0066BD" fill-opacity="0.3"/>
<path d="M2428.08 4.08094C2428.08 6.33344 2426.26 8.16196 2424.02 8.16196C2421.77 8.16196 2419.95 6.33344 2419.95 4.08094C2419.95 1.82844 2421.77 0 2424.02 0C2426.26 0 2428.08 1.82844 2428.08 4.08094Z" fill="#0066BD" fill-opacity="0.3"/>
<path opacity="0.9" d="M527.016 312.64C544.15 293.533 563.633 276.017 585.413 260.541C683.066 191.137 803.82 178.762 908.443 216.577L1019.53 137.634C866.098 51.0849 670.368 54.9274 517.169 163.789C481.001 189.494 449.558 219.386 423 252.352L527.016 312.64Z" fill="#0066BD" fill-opacity="0.3"/>
<path opacity="0.5" d="M563.7 670.52C569.534 634.447 545.13 600.458 509.194 594.602C473.257 588.747 439.396 613.243 433.562 649.316C427.729 685.388 452.133 719.378 488.069 725.233C524.006 731.089 557.867 706.593 563.7 670.52Z" fill="#3860AF" fill-opacity="0.3"/>
<path d="M923.393 391H0V408.516H923.393V391Z" fill="#C6C6D0"/>
</svg>
